<?xml version="1.0" encoding="UTF-8" ?>
<!DOCTYPE svg PUBLIC "-//W3C//DTD SVG 1.1//EN" "http://www.w3.org/Graphics/SVG/1.1/DTD/svg11.dtd">
<svg width="180pt" height="180pt" viewBox="0 0 180 180" version="1.1" xmlns="http://www.w3.org/2000/svg">
<path fill="#1f7721" d=" M 0.00 0.00 L 13.61 0.00 C 17.24 4.08 20.71 8.30 24.29 12.41 C 21.92 17.25 20.11 22.33 18.64 27.50 C 12.35 21.03 6.07 14.52 0.00 7.83 L 0.00 0.00 Z" />
<path fill="#ffffff" d=" M 13.61 0.00 L 16.85 0.00 C 19.73 3.45 22.36 7.11 25.22 10.58 C 24.98 11.04 24.52 11.96 24.29 12.41 C 20.71 8.30 17.24 4.08 13.61 0.00 Z" />
<path fill="#1f7721" d=" M 16.85 0.00 L 20.87 0.00 C 22.95 2.50 24.82 5.17 26.75 7.79 C 26.37 8.49 25.60 9.88 25.22 10.58 C 22.36 7.11 19.73 3.45 16.85 0.00 Z" />
<path fill="#ffffff" d=" M 20.87 0.00 L 23.02 0.00 C 24.60 2.09 26.07 4.27 27.59 6.41 C 27.30 6.86 27.02 7.32 26.75 7.79 C 24.82 5.17 22.95 2.50 20.87 0.00 Z" />
<path fill="#1e7721" d=" M 23.02 0.00 L 32.24 0.00 C 30.55 2.03 29.03 4.20 27.59 6.41 C 26.07 4.27 24.60 2.09 23.02 0.00 Z" />
<path fill="#000000" d=" M 32.24 0.00 L 36.06 0.00 C 24.52 12.56 19.60 29.82 18.86 46.56 C 17.21 54.22 16.76 62.34 18.87 69.96 C 20.65 77.24 22.41 84.52 24.08 91.82 C 22.63 92.27 21.17 92.72 19.72 93.18 C 18.78 91.11 17.96 88.99 17.23 86.84 L 17.05 86.30 C 16.23 81.78 15.21 77.19 16.08 72.58 C 16.12 72.41 16.20 72.07 16.24 71.90 C 17.06 69.34 17.43 66.64 17.04 63.96 C 16.32 57.14 16.04 50.27 16.36 43.42 L 16.38 42.76 C 16.62 39.27 17.12 35.81 17.66 32.35 L 17.80 31.47 C 17.98 30.63 18.34 28.95 18.51 28.10 C 18.55 27.95 18.61 27.65 18.64 27.50 C 20.11 22.33 21.92 17.25 24.29 12.41 C 24.52 11.96 24.98 11.04 25.22 10.58 C 25.60 9.88 26.37 8.49 26.75 7.79 C 27.02 7.32 27.30 6.86 27.59 6.41 C 29.03 4.20 30.55 2.03 32.24 0.00 Z" />
<path fill="#bc2026" d=" M 36.06 0.00 L 49.28 0.00 C 42.24 5.44 36.27 12.50 32.73 20.71 C 30.39 26.79 28.56 33.10 27.73 39.57 C 24.26 41.16 21.04 43.38 18.86 46.56 C 19.60 29.82 24.52 12.56 36.06 0.00 Z" />
<path fill="#7d151e" d=" M 49.28 0.00 L 57.52 0.00 C 57.35 2.00 55.74 5.87 59.02 5.81 C 62.42 6.29 63.09 2.25 64.31 0.00 L 77.54 0.00 C 77.51 2.30 77.48 4.60 77.47 6.91 C 77.49 11.62 77.51 16.32 77.51 21.03 C 73.31 21.36 69.13 21.05 64.97 20.49 C 62.26 20.08 59.53 21.76 58.38 24.20 C 57.64 26.98 57.93 29.91 57.87 32.76 C 57.50 33.09 56.75 33.75 56.38 34.08 C 46.69 34.87 37.01 36.65 27.73 39.57 C 28.56 33.10 30.39 26.79 32.73 20.71 C 36.27 12.50 42.24 5.44 49.28 0.00 Z" />
<path fill="#000000" d=" M 57.52 0.00 L 64.31 0.00 C 63.09 2.25 62.42 6.29 59.02 5.81 C 55.74 5.87 57.35 2.00 57.52 0.00 Z" />
<path fill="#ffffff" d=" M 77.54 0.00 L 98.50 0.00 C 98.50 2.01 98.50 4.01 98.50 6.02 C 91.48 5.85 84.45 6.08 77.47 6.91 C 77.48 4.60 77.51 2.30 77.54 0.00 Z" />
<path fill="#7d151e" d=" M 98.50 0.00 L 112.01 0.00 C 112.76 1.56 113.26 3.27 114.27 4.69 C 115.41 6.08 117.44 5.59 119.00 5.95 C 119.03 3.97 119.05 1.98 119.05 0.00 L 128.66 0.00 C 132.87 3.19 136.31 7.25 139.27 11.60 C 141.40 14.80 144.13 17.58 145.94 20.98 C 148.82 27.24 149.87 34.15 150.19 40.98 C 140.66 36.82 130.15 35.39 119.90 34.23 C 117.59 31.30 119.12 27.35 117.92 24.05 C 116.82 21.41 113.73 20.01 110.99 20.55 C 106.84 21.17 102.66 21.21 98.49 21.01 C 98.51 16.01 98.50 11.01 98.50 6.02 C 98.50 4.01 98.50 2.01 98.50 0.00 Z" />
<path fill="#000000" d=" M 112.01 0.00 L 119.05 0.00 C 119.05 1.98 119.03 3.97 119.00 5.95 C 117.44 5.59 115.41 6.08 114.27 4.69 C 113.26 3.27 112.76 1.56 112.01 0.00 Z" />
<path fill="#bc2026" d=" M 128.66 0.00 L 140.50 0.00 C 152.39 13.28 157.62 31.46 157.52 49.05 C 155.40 46.09 153.29 43.00 150.19 40.98 C 149.87 34.15 148.82 27.24 145.94 20.98 C 144.13 17.58 141.40 14.80 139.27 11.60 C 136.31 7.25 132.87 3.19 128.66 0.00 Z" />
<path fill="#000000" d=" M 140.50 0.00 L 144.41 0.00 C 146.06 2.15 147.56 4.41 149.05 6.67 C 149.33 7.12 149.88 8.02 150.16 8.47 C 150.38 9.52 150.57 10.57 150.73 11.63 C 154.40 15.47 155.78 20.70 157.26 25.65 C 157.35 25.97 157.53 26.60 157.62 26.92 C 157.81 27.72 158.20 29.31 158.40 30.11 C 158.43 30.30 158.50 30.68 158.53 30.87 C 159.22 34.69 159.81 38.53 160.11 42.40 L 160.12 42.93 C 160.22 45.72 160.31 48.52 160.29 51.31 L 160.26 52.53 C 160.22 54.21 160.18 55.89 160.09 57.58 C 160.06 57.90 160.00 58.55 159.97 58.87 C 159.02 64.11 159.50 69.39 161.37 74.37 C 161.36 75.50 161.33 76.62 161.26 77.75 C 161.22 84.38 158.70 90.55 155.43 96.20 L 155.16 96.59 C 155.65 96.62 156.61 96.68 157.09 96.72 C 156.17 101.50 155.79 106.38 154.74 111.14 L 153.79 111.01 C 153.30 110.83 152.32 110.46 151.83 110.28 C 149.62 112.43 146.78 113.27 143.80 112.35 C 144.06 111.37 144.57 109.43 144.83 108.46 C 144.96 109.71 145.08 110.97 145.19 112.23 C 146.74 111.46 149.38 111.79 150.10 109.88 C 150.32 109.11 150.78 107.58 151.01 106.81 C 151.07 107.61 151.19 109.22 151.25 110.02 C 152.12 109.59 152.99 109.16 153.86 108.74 C 154.31 105.12 154.32 101.40 155.66 97.95 C 154.40 98.07 153.14 98.18 151.88 98.28 C 152.04 98.92 152.35 100.20 152.51 100.84 C 152.14 100.27 151.39 99.11 151.01 98.53 L 150.81 97.81 C 152.08 97.03 153.34 96.25 154.61 95.46 C 154.61 94.81 154.59 93.52 154.58 92.87 C 157.10 87.10 158.93 80.92 158.49 74.55 C 157.04 80.18 156.45 86.07 154.15 91.46 C 152.72 93.21 151.20 90.76 151.57 89.28 L 151.76 88.36 C 155.08 82.63 154.76 75.74 156.36 69.48 C 158.11 62.79 157.33 55.87 157.52 49.05 C 157.62 31.46 152.39 13.28 140.50 0.00 Z" />
<path fill="#1f7721" d=" M 144.41 0.00 L 154.29 0.00 C 152.44 2.14 150.77 4.43 149.05 6.67 C 147.56 4.41 146.06 2.15 144.41 0.00 Z" />
<path fill="#ffffff" d=" M 154.29 0.00 L 157.30 0.00 C 154.80 2.71 152.50 5.62 150.16 8.47 C 149.88 8.02 149.33 7.12 149.05 6.67 C 150.77 4.43 152.44 2.14 154.29 0.00 Z" />
<path fill="#1f7721" d=" M 157.30 0.00 L 161.37 0.00 C 158.00 3.48 155.06 7.35 151.67 10.82 C 152.06 11.35 152.46 11.88 152.86 12.41 C 156.28 7.90 160.45 4.02 164.42 0.00 L 180.00 0.00 L 180.00 5.24 C 172.48 12.11 164.88 18.88 157.26 25.65 C 155.78 20.70 154.40 15.47 150.73 11.63 C 150.57 10.57 150.38 9.52 150.16 8.47 C 152.50 5.62 154.80 2.71 157.30 0.00 Z" />
<path fill="#ffffff" d=" M 161.37 0.00 L 164.42 0.00 C 160.45 4.02 156.28 7.90 152.86 12.41 C 152.46 11.88 152.06 11.35 151.67 10.82 C 155.06 7.35 158.00 3.48 161.37 0.00 Z" />
<path fill="#b2c3cb" d=" M 77.47 6.91 C 84.45 6.08 91.48 5.85 98.50 6.02 C 98.50 11.01 98.51 16.01 98.49 21.01 C 91.50 21.01 84.50 20.96 77.51 21.03 C 77.51 16.32 77.49 11.62 77.47 6.91 Z" />
<path fill="#ffffff" d=" M 157.26 25.65 C 164.88 18.88 172.48 12.11 180.00 5.24 L 180.00 8.47 C 172.61 14.71 165.05 20.74 157.62 26.92 C 157.53 26.60 157.35 25.97 157.26 25.65 Z" />
<path fill="#ffffff" d=" M 0.00 7.83 C 6.07 14.52 12.35 21.03 18.64 27.50 C 18.61 27.65 18.55 27.95 18.51 28.10 C 12.39 22.08 6.18 16.15 0.00 10.19 L 0.00 7.83 Z" />
<path fill="#1e7721" d=" M 157.62 26.92 C 165.05 20.74 172.61 14.71 180.00 8.47 L 180.00 13.16 C 172.88 18.91 165.48 24.31 158.40 30.11 C 158.20 29.31 157.81 27.72 157.62 26.92 Z" />
<path fill="#1f7721" d=" M 0.00 10.19 C 6.18 16.15 12.39 22.08 18.51 28.10 C 18.34 28.95 17.98 30.63 17.80 31.47 C 12.04 25.59 5.79 20.21 0.00 14.35 L 0.00 10.19 Z" />
<path fill="#ffffff" d=" M 158.40 30.11 C 165.48 24.31 172.88 18.91 180.00 13.16 L 180.00 15.50 C 172.92 20.73 165.62 25.65 158.53 30.87 C 158.50 30.68 158.43 30.30 158.40 30.11 Z" />
<path fill="#ffffff" d=" M 0.00 14.35 C 5.79 20.21 12.04 25.59 17.80 31.47 L 17.66 32.35 C 11.82 27.13 5.72 22.22 0.00 16.86 L 0.00 14.35 Z" />
<path fill="#1f7721" d=" M 158.53 30.87 C 165.62 25.65 172.92 20.73 180.00 15.50 L 180.00 30.28 C 173.49 34.52 166.66 38.24 160.11 42.40 C 159.81 38.53 159.22 34.69 158.53 30.87 Z" />
<path fill="#1e7721" d=" M 0.00 16.86 C 5.72 22.22 11.82 27.13 17.66 32.35 C 17.12 35.81 16.62 39.27 16.38 42.76 C 10.93 38.99 5.38 35.35 0.00 31.48 L 0.00 16.86 Z" />
<path fill="#000000" d=" M 58.38 24.20 C 59.53 21.76 62.26 20.08 64.97 20.49 C 69.13 21.05 73.31 21.36 77.51 21.03 C 84.50 20.96 91.50 21.01 98.49 21.01 C 102.66 21.21 106.84 21.17 110.99 20.55 C 113.73 20.01 116.82 21.41 117.92 24.05 C 119.12 27.35 117.59 31.30 119.90 34.23 C 120.16 35.80 120.26 37.39 120.38 38.98 C 124.00 39.48 127.63 39.95 131.20 40.75 C 135.39 44.44 142.00 43.89 145.66 48.45 C 149.26 52.26 147.90 57.92 147.17 62.56 C 145.42 68.50 142.47 74.00 140.73 79.95 C 140.28 81.43 139.75 83.04 138.18 83.68 C 138.46 81.67 138.76 79.66 139.13 77.66 C 139.67 76.11 140.21 74.56 140.73 73.01 C 137.32 75.81 134.69 79.36 132.59 83.21 C 132.11 83.23 131.16 83.27 130.69 83.29 C 132.40 79.95 134.08 76.46 136.92 73.91 C 138.88 71.92 141.58 70.44 142.51 67.66 C 144.39 62.76 145.70 57.27 144.52 52.07 C 142.55 47.61 137.26 46.17 132.92 45.14 C 130.42 44.16 128.19 45.80 126.00 46.76 C 121.80 48.30 117.23 47.72 112.86 48.12 C 98.28 49.13 83.66 48.64 69.05 48.75 C 62.72 48.66 56.36 49.05 50.05 48.33 C 47.98 47.38 46.10 46.06 44.00 45.16 C 39.91 45.58 36.13 47.45 32.92 49.95 C 32.98 51.62 33.03 53.29 33.11 54.96 C 33.20 59.10 33.00 63.27 33.76 67.36 C 34.70 71.07 38.35 72.94 40.93 75.40 L 40.25 75.86 C 43.22 76.53 46.07 77.62 48.93 78.63 C 55.41 81.05 62.36 80.53 69.13 80.22 C 70.47 79.89 71.83 79.60 73.18 79.29 C 75.06 78.59 77.40 77.94 78.14 75.83 C 79.37 72.84 79.77 69.61 80.58 66.51 C 78.61 64.18 76.02 62.37 72.87 62.26 L 71.52 63.39 C 69.85 63.37 68.18 63.25 66.51 63.18 C 61.31 63.08 56.13 62.45 50.94 62.59 C 50.11 63.52 49.27 64.43 48.43 65.33 C 48.12 64.80 47.50 63.74 47.19 63.21 C 46.03 64.15 44.86 65.09 43.71 66.05 L 43.66 64.60 C 45.97 63.20 48.52 62.28 51.11 61.53 C 51.78 61.50 53.13 61.43 53.80 61.40 C 60.58 61.45 67.37 61.37 74.15 61.50 C 76.74 62.05 78.89 63.56 80.76 65.38 C 85.31 63.79 90.19 64.31 94.88 64.84 C 97.16 63.31 99.60 61.91 102.35 61.44 C 109.46 61.27 116.58 61.69 123.69 61.22 C 124.36 61.20 125.71 61.16 126.38 61.14 C 128.14 62.61 130.12 63.77 132.09 64.92 L 130.61 64.63 C 128.57 64.12 126.57 63.45 124.55 62.88 C 125.70 64.97 127.09 66.95 127.93 69.20 C 125.95 67.77 123.69 66.85 121.36 66.23 C 120.98 66.59 120.61 66.96 120.24 67.32 C 118.62 66.44 116.89 67.14 115.25 67.49 C 115.74 68.25 116.73 69.78 117.23 70.54 C 118.30 72.86 115.27 72.72 113.80 73.35 C 114.30 71.24 114.72 69.11 115.19 66.99 C 115.43 65.92 115.67 64.84 115.92 63.77 C 118.78 63.55 121.72 63.58 124.41 62.49 C 118.94 62.27 113.49 63.05 108.03 63.19 C 105.61 63.31 103.24 62.07 100.84 62.60 C 98.91 63.36 97.19 64.56 95.44 65.65 C 95.46 66.28 95.49 67.53 95.50 68.15 C 95.28 68.46 94.83 69.09 94.61 69.40 C 94.60 68.43 94.58 66.50 94.57 65.54 C 90.25 65.03 85.88 65.08 81.57 65.66 C 80.70 69.87 80.07 74.16 78.23 78.09 C 75.73 79.24 72.89 79.88 70.87 81.85 C 64.64 81.97 58.37 81.48 52.16 82.18 C 51.65 81.62 50.64 80.50 50.13 79.94 C 47.36 79.22 44.69 78.17 42.02 77.15 C 43.25 79.17 44.44 81.21 45.57 83.29 C 45.05 83.28 44.03 83.26 43.51 83.26 C 41.40 79.34 38.71 75.77 35.32 72.87 C 36.47 76.29 37.52 79.73 38.34 83.24 C 37.84 83.20 36.84 83.11 36.34 83.07 C 35.03 75.34 29.84 69.00 28.70 61.24 C 27.65 56.59 27.52 50.85 31.56 47.54 C 34.64 44.34 40.10 44.88 42.53 40.94 L 43.09 40.62 C 43.35 41.22 43.60 41.84 43.84 42.45 C 46.85 44.55 50.12 46.96 53.99 46.80 C 77.04 46.91 100.12 47.00 123.13 45.60 C 125.67 45.02 127.86 43.51 130.18 42.41 C 123.18 40.95 116.07 40.64 108.94 40.65 C 108.15 39.86 107.41 39.03 106.69 38.19 C 107.31 37.24 108.59 36.55 108.71 35.34 C 108.17 34.44 107.59 33.57 106.98 32.72 C 107.33 32.63 108.04 32.44 108.40 32.35 C 109.14 32.86 109.89 33.36 110.65 33.86 C 110.37 35.57 109.84 37.20 109.06 38.75 C 112.13 39.52 115.33 39.22 118.47 39.29 C 119.41 36.96 118.93 34.69 117.05 33.02 C 116.98 30.30 116.99 27.58 117.03 24.86 C 115.13 22.34 111.90 21.01 109.02 22.88 C 106.61 23.71 107.56 26.51 107.50 28.43 C 106.98 29.56 106.44 30.68 105.89 31.79 C 105.62 28.95 105.54 26.08 106.04 23.26 C 94.04 22.63 81.95 22.33 69.96 23.25 L 70.74 24.59 C 70.79 27.46 70.47 30.31 70.10 33.15 C 69.19 33.67 68.26 34.20 67.55 35.00 C 67.51 36.48 69.14 37.10 69.96 38.11 C 68.98 39.05 68.19 40.49 66.69 40.60 C 61.93 41.03 57.11 40.30 52.39 41.37 C 49.74 41.35 47.08 41.28 44.44 41.03 C 47.93 39.00 52.10 39.37 55.97 38.90 C 56.10 37.29 56.24 35.69 56.38 34.08 C 56.75 33.75 57.50 33.09 57.87 32.76 C 57.93 29.91 57.64 26.98 58.38 24.20 Z" />
<path fill="#ffffff" d=" M 61.29 22.04 C 63.48 22.28 67.11 20.67 68.37 23.43 C 69.10 26.32 68.84 29.47 68.47 32.42 C 68.06 32.50 67.24 32.67 66.83 32.76 C 66.47 33.32 65.75 34.45 65.40 35.01 C 66.18 36.42 67.00 37.81 67.95 39.11 C 64.67 39.29 61.38 39.26 58.10 39.24 C 57.16 37.22 56.91 34.95 59.16 33.70 C 59.69 30.25 59.24 26.73 60.00 23.30 C 60.78 24.31 61.53 25.61 60.70 26.92 C 62.51 29.38 65.68 28.67 67.54 26.64 C 65.84 26.79 64.00 26.83 62.93 25.25 L 62.87 27.53 C 61.97 26.47 62.05 25.31 63.11 24.07 C 64.27 25.10 65.83 25.02 67.02 24.08 C 65.11 23.40 62.99 23.23 61.29 22.04 Z" />
<path fill="#ffffff" d=" M 109.02 22.88 C 111.90 21.01 115.13 22.34 117.03 24.86 C 116.99 27.58 116.98 30.30 117.05 33.02 C 118.93 34.69 119.41 36.96 118.47 39.29 C 115.33 39.22 112.13 39.52 109.06 38.75 C 109.84 37.20 110.37 35.57 110.65 33.86 C 109.89 33.36 109.14 32.86 108.40 32.35 C 108.17 31.37 107.72 29.41 107.50 28.43 C 107.56 26.51 106.61 23.71 109.02 22.88 Z" />
<path fill="#f0f0f0" d=" M 69.96 23.25 C 81.95 22.33 94.04 22.63 106.04 23.26 C 105.54 26.08 105.62 28.95 105.89 31.79 C 105.88 32.02 105.86 32.50 105.85 32.73 C 95.50 33.24 85.14 32.82 74.79 32.99 C 73.67 30.08 72.43 27.21 70.74 24.59 L 69.96 23.25 Z" />
<path fill="#000000" d=" M 109.58 24.76 C 110.42 23.76 111.79 23.53 112.91 22.96 C 114.61 23.70 116.77 25.11 115.46 27.24 C 114.58 27.70 112.84 28.64 111.96 29.10 C 112.77 28.23 114.39 26.48 115.19 25.61 L 113.12 26.46 C 112.93 26.77 112.54 27.37 112.35 27.67 C 111.75 27.73 110.55 27.85 109.95 27.91 C 109.77 26.87 109.32 25.82 109.58 24.76 Z" />
<path fill="#ffffff" d=" M 112.01 24.99 C 112.66 24.30 112.66 24.30 112.01 24.99 Z" />
<path fill="#b9c8cf" d=" M 70.74 24.59 C 72.43 27.21 73.67 30.08 74.79 32.99 C 73.22 33.01 71.66 33.07 70.10 33.15 C 70.47 30.31 70.79 27.46 70.74 24.59 Z" />
<path fill="#ffffff" d=" M 112.01 24.99 C 111.32 25.68 111.32 25.68 112.01 24.99 Z" />
<path fill="#3c444f" d=" M 105.89 31.79 C 106.44 30.68 106.98 29.56 107.50 28.43 C 107.72 29.41 108.17 31.37 108.40 32.35 C 108.04 32.44 107.33 32.63 106.98 32.72 C 107.59 33.57 108.17 34.44 108.71 35.34 C 108.59 36.55 107.31 37.24 106.69 38.19 C 94.48 37.44 82.17 37.49 69.96 38.11 C 69.14 37.10 67.51 36.48 67.55 35.00 C 68.26 34.20 69.19 33.67 70.10 33.15 C 71.66 33.07 73.22 33.01 74.79 32.99 C 85.14 32.82 95.50 33.24 105.85 32.73 C 105.86 32.50 105.88 32.02 105.89 31.79 Z" />
<path fill="#f7f8fa" d=" M 160.11 42.40 C 166.66 38.24 173.49 34.52 180.00 30.28 L 180.00 32.00 C 173.44 35.76 166.71 39.21 160.12 42.93 L 160.11 42.40 Z" />
<path fill="#f0f0f0" d=" M 0.00 31.48 C 5.38 35.35 10.93 38.99 16.38 42.76 L 16.36 43.42 C 10.94 39.80 5.38 36.39 0.00 32.72 L 0.00 31.48 Z" />
<path fill="#1f7721" d=" M 0.00 32.72 C 5.38 36.39 10.94 39.80 16.36 43.42 C 16.04 50.27 16.32 57.14 17.04 63.96 C 17.43 66.64 17.06 69.34 16.24 71.90 C 10.83 70.61 5.38 69.48 0.00 68.07 L 0.00 64.86 C 5.48 66.32 10.93 68.07 16.56 68.88 C 11.06 67.08 5.47 65.61 0.00 63.74 L 0.00 32.72 Z" />
<path fill="#1e7721" d=" M 160.12 42.93 C 166.71 39.21 173.44 35.76 180.00 32.00 L 180.00 39.37 C 173.50 43.47 166.78 47.20 160.29 51.31 C 160.31 48.52 160.22 45.72 160.12 42.93 Z" />
<path fill="#3c444f" d=" M 27.73 39.57 C 37.01 36.65 46.69 34.87 56.38 34.08 C 56.24 35.69 56.10 37.29 55.97 38.90 C 52.10 39.37 47.93 39.00 44.44 41.03 C 47.08 41.28 49.74 41.35 52.39 41.37 L 53.28 41.47 C 50.11 41.48 46.95 41.85 43.84 42.45 C 43.60 41.84 43.35 41.22 43.09 40.62 L 42.53 40.94 C 36.91 41.67 31.24 42.89 26.24 45.67 C 24.84 46.91 23.28 48.16 22.70 50.01 C 23.09 51.93 23.87 53.75 24.61 55.56 C 28.32 64.60 31.49 73.85 35.13 82.91 L 36.34 83.07 C 36.84 83.11 37.84 83.20 38.34 83.24 C 40.06 83.28 41.79 83.24 43.51 83.26 C 44.03 83.26 45.05 83.28 45.57 83.29 C 47.29 83.28 49.02 83.21 50.74 83.09 C 62.81 83.25 74.89 83.77 86.97 83.40 C 100.00 83.86 113.03 83.06 126.06 83.24 C 127.60 83.26 129.15 83.29 130.69 83.29 C 131.16 83.27 132.11 83.23 132.59 83.21 C 134.22 83.12 135.85 82.96 137.47 82.79 C 137.93 81.05 138.49 79.34 139.13 77.66 C 138.76 79.66 138.46 81.67 138.18 83.68 C 139.75 83.04 140.28 81.43 140.73 79.95 C 142.47 74.00 145.42 68.50 147.17 62.56 C 148.88 58.46 151.02 54.47 151.90 50.08 C 151.68 47.78 149.62 46.27 147.78 45.20 C 142.66 42.50 136.84 41.63 131.20 40.75 C 127.63 39.95 124.00 39.48 120.38 38.98 C 120.26 37.39 120.16 35.80 119.90 34.23 C 130.15 35.39 140.66 36.82 150.19 40.98 C 153.29 43.00 155.40 46.09 157.52 49.05 C 157.33 55.87 158.11 62.79 156.36 69.48 C 154.76 75.74 155.08 82.63 151.76 88.36 C 151.64 88.60 151.42 89.07 151.30 89.31 C 151.21 90.42 151.20 91.53 151.27 92.64 C 152.38 92.71 153.48 92.79 154.58 92.87 C 154.59 93.52 154.61 94.81 154.61 95.46 C 153.34 96.25 152.08 97.03 150.81 97.81 C 149.50 97.92 148.19 98.01 146.89 98.16 C 146.15 100.00 145.55 101.89 144.97 103.79 C 144.93 102.19 144.89 100.59 144.86 98.99 C 143.25 99.01 141.64 99.02 140.03 99.05 C 139.97 99.61 139.86 100.75 139.80 101.32 C 139.66 102.00 139.38 103.38 139.23 104.07 C 139.09 104.74 138.81 106.08 138.66 106.74 C 138.27 108.82 137.94 110.91 137.73 113.02 C 138.99 112.69 140.26 112.38 141.53 112.09 L 142.24 112.15 C 142.63 112.20 143.41 112.30 143.80 112.35 C 146.78 113.27 149.62 112.43 151.83 110.28 C 152.32 110.46 153.30 110.83 153.79 111.01 L 154.88 111.42 C 153.86 113.75 152.52 116.00 150.34 117.41 C 148.46 117.39 146.58 117.38 144.70 117.35 C 143.23 117.33 141.76 117.32 140.29 117.39 C 139.03 117.43 137.76 117.48 136.50 117.52 C 136.34 118.92 136.17 120.32 135.99 121.72 C 135.83 122.81 135.64 123.90 135.42 124.98 C 135.27 125.49 134.96 126.50 134.81 127.01 C 132.78 129.74 130.25 132.07 127.43 133.97 C 122.79 135.34 117.98 135.95 113.21 136.66 L 112.64 136.64 C 112.52 137.25 112.29 138.48 112.17 139.09 C 112.12 138.48 112.01 137.26 111.95 136.65 C 111.70 136.64 111.18 136.63 110.92 136.62 C 109.09 136.82 106.53 135.79 105.55 137.91 C 103.58 135.86 100.54 137.06 98.06 137.01 C 97.22 135.53 94.76 135.14 93.84 136.73 L 92.29 136.44 C 88.84 136.09 85.34 136.08 81.92 136.65 C 81.77 137.27 81.48 138.49 81.34 139.10 C 81.17 138.11 81.14 137.00 80.35 136.27 L 79.76 135.69 C 79.34 135.91 78.49 136.34 78.07 136.55 C 75.92 136.56 73.76 136.56 71.66 137.02 C 71.22 137.11 70.35 137.28 69.91 137.37 C 69.59 137.20 68.95 136.85 68.63 136.68 C 67.00 136.53 65.36 136.52 63.73 136.46 C 58.29 136.38 52.95 135.30 47.62 134.36 C 44.79 131.99 41.55 129.83 39.96 126.37 C 39.84 125.98 39.59 125.21 39.46 124.82 C 39.26 123.80 39.07 122.78 38.91 121.76 C 38.69 120.35 38.49 118.94 38.29 117.53 C 37.35 117.48 36.42 117.44 35.49 117.43 C 33.72 117.38 31.94 117.39 30.17 117.41 C 29.01 117.42 27.85 117.39 26.70 117.35 C 23.90 117.31 21.90 115.44 20.25 113.39 C 21.33 112.97 22.42 112.56 23.51 112.17 C 27.76 112.84 32.08 112.79 36.38 112.81 L 36.95 112.82 C 38.16 111.28 37.27 109.38 36.38 107.96 L 36.17 106.90 C 35.87 105.49 35.54 104.09 35.11 102.71 C 34.93 102.15 34.58 101.03 34.40 100.47 C 34.33 99.97 34.19 98.95 34.12 98.45 C 32.52 98.28 30.91 98.12 29.30 97.97 C 29.27 99.63 29.25 101.29 29.24 102.95 L 28.39 101.54 C 28.16 100.43 27.95 99.33 27.75 98.22 L 26.67 97.86 C 25.55 97.59 24.42 97.37 23.29 97.16 C 23.54 99.74 23.94 102.34 23.85 104.95 C 23.19 105.20 21.87 105.72 21.21 105.97 C 21.30 103.08 21.62 100.20 21.64 97.31 C 21.40 96.80 20.94 95.79 20.71 95.28 C 20.46 94.75 19.97 93.70 19.72 93.18 C 21.17 92.72 22.63 92.27 24.08 91.82 C 22.41 84.52 20.65 77.24 18.87 69.96 C 16.76 62.34 17.21 54.22 18.86 46.56 C 21.04 43.38 24.26 41.16 27.73 39.57 Z" />
<path fill="#b2c3cb" d=" M 69.96 38.11 C 82.17 37.49 94.48 37.44 106.69 38.19 C 107.41 39.03 108.15 39.86 108.94 40.65 C 97.27 40.32 85.59 40.61 73.92 41.12 C 67.05 41.40 60.13 42.72 53.28 41.47 L 52.39 41.37 C 57.11 40.30 61.93 41.03 66.69 40.60 C 68.19 40.49 68.98 39.05 69.96 38.11 Z" />
<path fill="#ffffff" d=" M 160.29 51.31 C 166.78 47.20 173.50 43.47 180.00 39.37 L 180.00 41.69 C 173.51 45.46 166.80 48.85 160.26 52.53 L 160.29 51.31 Z" />
<path fill="#7d151e" d=" M 26.24 45.67 C 31.24 42.89 36.91 41.67 42.53 40.94 C 40.10 44.88 34.64 44.34 31.56 47.54 C 27.52 50.85 27.65 56.59 28.70 61.24 C 29.84 69.00 35.03 75.34 36.34 83.07 L 35.13 82.91 C 31.49 73.85 28.32 64.60 24.61 55.56 C 25.54 52.34 26.01 49.01 26.24 45.67 Z" />
<path fill="#f0f0f0" d=" M 53.28 41.47 C 60.13 42.72 67.05 41.40 73.92 41.12 C 85.59 40.61 97.27 40.32 108.94 40.65 C 116.07 40.64 123.18 40.95 130.18 42.41 C 127.86 43.51 125.67 45.02 123.13 45.60 C 100.12 47.00 77.04 46.91 53.99 46.80 C 50.12 46.96 46.85 44.55 43.84 42.45 C 46.95 41.85 50.11 41.48 53.28 41.47 Z" />
<path fill="#7d151e" d=" M 131.20 40.75 C 136.84 41.63 142.66 42.50 147.78 45.20 C 149.62 46.27 151.68 47.78 151.90 50.08 C 151.02 54.47 148.88 58.46 147.17 62.56 C 147.90 57.92 149.26 52.26 145.66 48.45 C 142.00 43.89 135.39 44.44 131.20 40.75 Z" />
<path fill="#1e7721" d=" M 160.26 52.53 C 166.80 48.85 173.51 45.46 180.00 41.69 L 180.00 48.29 C 173.45 51.57 166.72 54.45 160.09 57.58 C 160.18 55.89 160.22 54.21 160.26 52.53 Z" />
<path fill="#fce8dd" d=" M 32.92 49.95 C 36.13 47.45 39.91 45.58 44.00 45.16 C 46.10 46.06 47.98 47.38 50.05 48.33 C 49.96 49.86 49.86 51.39 49.76 52.92 C 47.65 54.32 45.74 55.98 43.84 57.65 C 44.72 57.34 45.59 57.04 46.47 56.74 C 48.98 58.18 51.45 59.70 53.80 61.40 C 53.13 61.43 51.78 61.50 51.11 61.53 C 48.52 62.28 45.97 63.20 43.66 64.60 C 43.26 64.81 42.46 65.25 42.06 65.47 C 39.40 65.29 36.77 64.90 34.13 64.51 C 33.78 61.33 33.37 58.15 33.11 54.96 C 33.03 53.29 32.98 51.62 32.92 49.95 Z" />
<path fill="#fce8dd" d=" M 126.00 46.76 C 128.19 45.80 130.42 44.16 132.92 45.14 C 137.26 46.17 142.55 47.61 144.52 52.07 C 145.70 57.27 144.39 62.76 142.51 67.66 C 141.58 70.44 138.88 71.92 136.92 73.91 C 134.08 76.46 132.40 79.95 130.69 83.29 C 129.15 83.29 127.60 83.26 126.06 83.24 C 126.02 82.64 125.94 81.43 125.90 80.83 L 126.42 80.22 C 128.10 79.29 129.92 78.60 131.53 77.54 C 133.32 75.09 133.00 71.83 133.39 68.96 C 136.84 67.33 142.39 67.79 143.29 63.19 C 139.55 63.71 135.86 64.61 132.09 64.92 C 130.12 63.77 128.14 62.61 126.38 61.14 C 125.71 61.16 124.36 61.20 123.69 61.22 C 126.43 60.26 129.16 59.25 131.94 58.40 C 131.78 58.21 131.47 57.83 131.31 57.64 C 130.28 56.40 129.25 55.17 128.16 54.00 C 127.50 51.57 126.78 49.16 126.00 46.76 Z" />
<path fill="#a9232a" d=" M 22.70 50.01 C 23.28 48.16 24.84 46.91 26.24 45.67 C 26.01 49.01 25.54 52.34 24.61 55.56 C 23.87 53.75 23.09 51.93 22.70 50.01 Z" />
<path fill="#fccfbc" d=" M 112.86 48.12 C 117.23 47.72 121.80 48.30 126.00 46.76 C 126.78 49.16 127.50 51.57 128.16 54.00 C 120.68 49.23 111.35 52.23 103.34 53.87 C 102.70 53.94 101.43 54.07 100.79 54.14 C 100.00 55.67 99.34 57.26 98.68 58.84 C 99.26 58.90 100.42 59.02 101.00 59.08 C 101.34 59.67 102.01 60.85 102.35 61.44 C 99.60 61.91 97.16 63.31 94.88 64.84 C 90.19 64.31 85.31 63.79 80.76 65.38 C 78.89 63.56 76.74 62.05 74.15 61.50 C 74.43 60.82 75.00 59.46 75.29 58.78 C 75.72 58.75 76.58 58.71 77.01 58.69 C 76.85 58.21 76.54 57.24 76.38 56.76 C 72.94 57.17 71.38 53.44 68.17 53.22 C 62.11 52.45 55.53 49.54 49.76 52.92 C 49.86 51.39 49.96 49.86 50.05 48.33 C 56.36 49.05 62.72 48.66 69.05 48.75 C 83.66 48.64 98.28 49.13 112.86 48.12 Z" />
<path fill="#ffffff" d=" M 160.09 57.58 C 166.72 54.45 173.45 51.57 180.00 48.29 L 180.00 50.56 C 173.37 53.43 166.63 56.05 159.97 58.87 C 160.00 58.55 160.06 57.90 160.09 57.58 Z" />
<path fill="#000000" d=" M 49.76 52.92 C 55.53 49.54 62.11 52.45 68.17 53.22 C 71.38 53.44 72.94 57.17 76.38 56.76 C 76.54 57.24 76.85 58.21 77.01 58.69 C 76.58 58.71 75.72 58.75 75.29 58.78 C 69.30 58.97 63.18 58.60 57.56 56.34 C 54.01 54.73 50.00 55.50 46.47 56.74 C 45.59 57.04 44.72 57.34 43.84 57.65 C 45.74 55.98 47.65 54.32 49.76 52.92 Z" />
<path fill="#1e7721" d=" M 159.97 58.87 C 166.63 56.05 173.37 53.43 180.00 50.56 L 180.00 68.33 C 173.81 70.39 167.73 72.87 161.37 74.37 C 159.50 69.39 159.02 64.11 159.97 58.87 Z" />
<path fill="#000000" d=" M 103.34 53.87 C 111.35 52.23 120.68 49.23 128.16 54.00 C 129.25 55.17 130.28 56.40 131.31 57.64 C 128.62 56.56 125.97 54.95 122.96 55.20 C 118.17 55.11 113.83 57.46 109.16 58.09 C 106.57 58.28 103.98 58.28 101.39 58.30 C 102.04 56.83 102.70 55.35 103.34 53.87 Z" />
<path fill="#40322f" d=" M 73.46 54.54 C 73.72 54.81 73.72 54.81 73.46 54.54 Z" />
<path fill="#795f56" d=" M 98.68 58.84 C 99.34 57.26 100.00 55.67 100.79 54.14 C 101.43 54.07 102.70 53.94 103.34 53.87 C 102.70 55.35 102.04 56.83 101.39 58.30 C 103.98 58.28 106.57 58.28 109.16 58.09 C 106.45 58.52 103.74 58.89 101.00 59.08 C 100.42 59.02 99.26 58.90 98.68 58.84 Z" />
<path fill="#494d4e" d=" M 33.11 54.96 C 33.37 58.15 33.78 61.33 34.13 64.51 C 36.77 64.90 39.40 65.29 42.06 65.47 C 42.46 65.25 43.26 64.81 43.66 64.60 L 43.71 66.05 C 43.41 68.26 43.28 70.49 43.40 72.72 C 42.93 73.35 42.46 73.98 41.98 74.61 C 41.86 72.81 41.76 71.02 41.66 69.22 C 39.04 68.52 36.41 67.87 33.76 67.36 C 33.00 63.27 33.20 59.10 33.11 54.96 Z" />
<path fill="#d99e8e" d=" M 109.16 58.09 C 113.83 57.46 118.17 55.11 122.96 55.20 C 125.97 54.95 128.62 56.56 131.31 57.64 C 131.47 57.83 131.78 58.21 131.94 58.40 C 129.16 59.25 126.43 60.26 123.69 61.22 C 116.58 61.69 109.46 61.27 102.35 61.44 C 102.01 60.85 101.34 59.67 101.00 59.08 C 103.74 58.89 106.45 58.52 109.16 58.09 Z" />
<path fill="#d99e8e" d=" M 46.47 56.74 C 50.00 55.50 54.01 54.73 57.56 56.34 C 63.18 58.60 69.30 58.97 75.29 58.78 C 75.00 59.46 74.43 60.82 74.15 61.50 C 67.37 61.37 60.58 61.45 53.80 61.40 C 51.45 59.70 48.98 58.18 46.47 56.74 Z" />
<path fill="#fde5db" d=" M 108.03 63.19 C 113.49 63.05 118.94 62.27 124.41 62.49 C 121.72 63.58 118.78 63.55 115.92 63.77 C 112.17 64.05 108.41 64.34 104.64 64.46 C 103.84 66.43 103.08 68.42 102.46 70.45 C 102.01 73.56 103.13 76.52 104.22 79.37 C 102.16 78.81 99.83 78.42 98.34 76.75 C 96.86 74.09 96.26 71.06 95.50 68.15 C 95.49 67.53 95.46 66.28 95.44 65.65 C 97.19 64.56 98.91 63.36 100.84 62.60 C 103.24 62.07 105.61 63.31 108.03 63.19 Z" />
<path fill="#7d151e" d=" M 22.08 62.71 C 25.25 68.04 26.67 74.18 29.01 79.89 C 29.83 82.77 32.04 86.02 29.98 88.87 C 29.30 86.81 28.55 84.78 27.60 82.84 C 27.36 82.72 26.87 82.49 26.63 82.37 L 26.38 82.26 C 25.13 75.70 22.86 69.34 22.08 62.71 Z" />
<path fill="#fdf1eb" d=" M 50.94 62.59 C 56.13 62.45 61.31 63.08 66.51 63.18 C 64.20 63.41 61.92 63.80 59.62 64.07 C 57.16 63.87 54.70 63.65 52.24 63.51 C 51.05 65.74 49.81 67.93 48.67 70.18 C 47.51 72.94 48.15 75.88 48.93 78.63 C 46.07 77.62 43.22 76.53 40.25 75.86 L 40.93 75.40 C 38.35 72.94 34.70 71.07 33.76 67.36 C 36.41 67.87 39.04 68.52 41.66 69.22 C 41.76 71.02 41.86 72.81 41.98 74.61 C 42.46 73.98 42.93 73.35 43.40 72.72 C 43.28 70.49 43.41 68.26 43.71 66.05 C 44.86 65.09 46.03 64.15 47.19 63.21 C 47.50 63.74 48.12 64.80 48.43 65.33 C 49.27 64.43 50.11 63.52 50.94 62.59 Z" />
<path fill="#ae8b84" d=" M 66.51 63.18 C 68.18 63.25 69.85 63.37 71.52 63.39 C 70.70 63.90 69.83 64.33 68.94 64.73 C 68.30 64.74 67.01 64.77 66.37 64.79 C 65.37 65.63 66.35 66.83 66.65 67.76 C 65.42 67.96 64.20 68.16 62.97 68.38 C 63.58 69.25 64.19 70.12 64.83 70.97 C 64.57 71.47 64.06 72.48 63.80 72.98 C 63.70 73.44 63.49 74.37 63.39 74.83 C 61.21 72.99 58.72 71.50 55.88 70.99 C 56.49 74.40 59.44 76.18 62.21 77.75 L 61.40 78.08 C 56.08 77.95 53.04 71.55 55.73 67.10 C 58.80 66.97 62.72 68.54 65.12 65.96 C 65.05 65.69 64.92 65.14 64.86 64.86 C 63.11 64.58 61.38 64.20 59.62 64.07 C 61.92 63.80 64.20 63.41 66.51 63.18 Z" />
<path fill="#fccfbc" d=" M 71.52 63.39 L 72.87 62.26 C 76.02 62.37 78.61 64.18 80.58 66.51 C 79.77 69.61 79.37 72.84 78.14 75.83 C 77.40 77.94 75.06 78.59 73.18 79.29 C 74.06 76.67 74.85 73.98 74.72 71.19 C 73.98 69.02 73.18 66.88 72.39 64.73 C 71.53 64.73 69.80 64.73 68.94 64.73 C 69.83 64.33 70.70 63.90 71.52 63.39 Z" />
<path fill="#8c1720" d=" M 145.23 82.08 C 147.88 75.62 149.53 68.71 152.87 62.56 C 152.20 69.08 149.96 75.32 148.56 81.70 C 147.44 85.31 147.25 89.28 145.24 92.57 C 144.35 89.14 143.56 85.41 145.23 82.08 Z" />
<path fill="#ffffff" d=" M 0.00 63.74 C 5.47 65.61 11.06 67.08 16.56 68.88 C 10.93 68.07 5.48 66.32 0.00 64.86 L 0.00 63.74 Z" />
<path fill="#757575" d=" M 52.24 63.51 C 54.70 63.65 57.16 63.87 59.62 64.07 C 61.38 64.20 63.11 64.58 64.86 64.86 C 64.92 65.14 65.05 65.69 65.12 65.96 C 62.72 68.54 58.80 66.97 55.73 67.10 C 53.01 67.08 50.84 68.81 48.67 70.18 C 49.81 67.93 51.05 65.74 52.24 63.51 Z" />
<path fill="#7b7a7a" d=" M 104.64 64.46 C 108.41 64.34 112.17 64.05 115.92 63.77 C 115.67 64.84 115.43 65.92 115.19 66.99 C 113.01 67.13 110.83 67.27 108.65 67.28 C 107.88 67.28 107.11 67.28 106.35 67.28 C 105.06 68.35 103.76 69.41 102.46 70.45 C 103.08 68.42 103.84 66.43 104.64 64.46 Z" />
<path fill="#fce8dd" d=" M 124.55 62.88 C 126.57 63.45 128.57 64.12 130.61 64.63 C 132.50 68.12 132.07 72.21 130.91 75.85 C 130.19 76.55 129.40 77.15 128.55 77.67 C 128.85 74.89 129.67 71.63 127.93 69.20 C 127.09 66.95 125.70 64.97 124.55 62.88 Z" />
<path fill="#494d4e" d=" M 132.09 64.92 C 135.86 64.61 139.55 63.71 143.29 63.19 C 142.39 67.79 136.84 67.33 133.39 68.96 C 133.00 71.83 133.32 75.09 131.53 77.54 C 129.92 78.60 128.10 79.29 126.42 80.22 L 125.90 80.83 C 125.65 81.11 125.16 81.67 124.91 81.95 C 119.95 82.31 114.99 81.75 110.03 81.90 C 106.59 82.04 103.30 80.88 100.13 79.71 C 96.04 78.26 94.79 73.28 94.61 69.40 C 94.83 69.09 95.28 68.46 95.50 68.15 C 96.26 71.06 96.86 74.09 98.34 76.75 C 99.83 78.42 102.16 78.81 104.22 79.37 C 112.30 80.70 120.80 80.60 128.55 77.67 C 129.40 77.15 130.19 76.55 130.91 75.85 C 132.07 72.21 132.50 68.12 130.61 64.63 L 132.09 64.92 Z" />
<path fill="#000000" d=" M 66.65 67.76 C 66.35 66.83 65.37 65.63 66.37 64.79 C 67.01 64.77 68.30 64.74 68.94 64.73 C 69.80 64.73 71.53 64.73 72.39 64.73 C 73.18 66.88 73.98 69.02 74.72 71.19 C 73.07 69.69 71.31 68.32 69.36 67.23 C 71.25 72.55 67.33 78.81 61.40 78.08 L 62.21 77.75 L 62.77 77.48 C 65.50 76.33 68.26 74.77 69.10 71.69 C 68.28 71.55 66.63 71.28 65.81 71.14 C 67.68 70.83 68.51 69.75 68.32 67.89 C 67.90 67.86 67.07 67.79 66.65 67.76 Z" />
<path fill="#fccfbd" d=" M 81.57 65.66 C 85.88 65.08 90.25 65.03 94.57 65.54 C 94.58 66.50 94.60 68.43 94.61 69.40 C 94.79 73.28 96.04 78.26 100.13 79.71 C 103.30 80.88 106.59 82.04 110.03 81.90 C 114.99 81.75 119.95 82.31 124.91 81.95 C 125.16 81.67 125.65 81.11 125.90 80.83 C 125.94 81.43 126.02 82.64 126.06 83.24 C 113.03 83.06 100.00 83.86 86.97 83.40 C 74.89 83.77 62.81 83.25 50.74 83.09 L 52.16 82.18 C 58.37 81.48 64.64 81.97 70.87 81.85 C 72.89 79.88 75.73 79.24 78.23 78.09 C 80.07 74.16 80.70 69.87 81.57 65.66 Z" />
<path fill="#ffffff" d=" M 115.25 67.49 C 116.89 67.14 118.62 66.44 120.24 67.32 C 120.61 66.96 120.98 66.59 121.36 66.23 C 123.69 66.85 125.95 67.77 127.93 69.20 C 129.67 71.63 128.85 74.89 128.55 77.67 C 120.80 80.60 112.30 80.70 104.22 79.37 C 103.13 76.52 102.01 73.56 102.46 70.45 C 103.76 69.41 105.06 68.35 106.35 67.28 C 107.11 67.28 107.88 67.28 108.65 67.28 C 107.18 69.97 107.56 73.18 109.47 75.54 C 112.48 77.83 117.06 78.86 120.10 76.07 C 122.96 74.04 122.93 70.28 122.28 67.19 C 121.27 67.95 120.23 68.72 119.73 69.92 C 119.11 70.07 117.86 70.38 117.23 70.54 C 116.73 69.78 115.74 68.25 115.25 67.49 Z" />
<path fill="#ffffff" d=" M 48.67 70.18 C 50.84 68.81 53.01 67.08 55.73 67.10 C 53.04 71.55 56.08 77.95 61.40 78.08 C 67.33 78.81 71.25 72.55 69.36 67.23 C 71.31 68.32 73.07 69.69 74.72 71.19 C 74.85 73.98 74.06 76.67 73.18 79.29 C 71.83 79.60 70.47 79.89 69.13 80.22 C 62.36 80.53 55.41 81.05 48.93 78.63 C 48.15 75.88 47.51 72.94 48.67 70.18 Z" />
<path fill="#af8d86" d=" M 108.65 67.28 C 110.83 67.27 113.01 67.13 115.19 66.99 C 114.72 69.11 114.30 71.24 113.80 73.35 C 113.67 73.86 113.41 74.87 113.29 75.38 C 113.24 74.51 113.14 72.77 113.09 71.90 C 111.88 71.63 110.66 71.35 109.46 71.07 C 109.47 72.56 109.48 74.05 109.47 75.54 C 107.56 73.18 107.18 69.97 108.65 67.28 Z" />
<path fill="#f7f8fa" d=" M 0.00 68.07 C 5.38 69.48 10.83 70.61 16.24 71.90 C 16.20 72.07 16.12 72.41 16.08 72.58 C 10.73 71.50 5.38 70.43 0.00 69.51 L 0.00 68.07 Z" />
<path fill="#f4f2f1" d=" M 62.97 68.38 C 64.20 68.16 65.42 67.96 66.65 67.76 C 67.07 67.79 67.90 67.86 68.32 67.89 C 68.51 69.75 67.68 70.83 65.81 71.14 L 64.83 70.97 C 64.19 70.12 63.58 69.25 62.97 68.38 Z" />
<path fill="#000000" d=" M 119.73 69.92 C 120.23 68.72 121.27 67.95 122.28 67.19 C 122.93 70.28 122.96 74.04 120.10 76.07 C 117.06 78.86 112.48 77.83 109.47 75.54 C 110.64 75.95 111.81 76.34 112.99 76.71 C 116.90 77.24 121.24 75.56 122.02 71.28 C 121.36 71.43 120.03 71.74 119.36 71.89 C 119.46 71.40 119.64 70.41 119.73 69.92 Z" />
<path fill="#ffffff" d=" M 161.37 74.37 C 167.73 72.87 173.81 70.39 180.00 68.33 L 180.00 69.92 C 173.89 71.66 167.90 74.06 161.57 74.85 C 162.02 75.48 162.48 76.12 162.93 76.75 C 168.60 75.16 174.35 73.88 180.00 72.25 L 180.00 73.60 C 173.78 75.13 167.46 76.17 161.26 77.75 C 161.33 76.62 161.36 75.50 161.37 74.37 Z" />
<path fill="#1f7721" d=" M 0.00 69.51 C 5.38 70.43 10.73 71.50 16.08 72.58 C 15.21 77.19 16.23 81.78 17.05 86.30 C 11.37 85.99 5.68 85.76 0.00 85.40 L 0.00 82.84 C 5.21 83.03 10.39 83.89 15.61 83.59 C 10.42 82.98 5.21 82.43 0.00 81.96 L 0.00 69.51 Z" />
<path fill="#aa645a" d=" M 117.23 70.54 C 117.86 70.38 119.11 70.07 119.73 69.92 C 119.64 70.41 119.46 71.40 119.36 71.89 C 120.03 71.74 121.36 71.43 122.02 71.28 C 121.24 75.56 116.90 77.24 112.99 76.71 L 113.29 75.38 C 113.41 74.87 113.67 73.86 113.80 73.35 C 115.27 72.72 118.30 72.86 117.23 70.54 Z" />
<path fill="#1e7721" d=" M 161.57 74.85 C 167.90 74.06 173.89 71.66 180.00 69.92 L 180.00 72.25 C 174.35 73.88 168.60 75.16 162.93 76.75 C 162.48 76.12 162.02 75.48 161.57 74.85 Z" />
<path fill="#d1aba5" d=" M 55.88 70.99 C 58.72 71.50 61.21 72.99 63.39 74.83 C 63.23 75.49 62.92 76.82 62.77 77.48 L 62.21 77.75 C 59.44 76.18 56.49 74.40 55.88 70.99 Z" />
<path fill="#6f4334" d=" M 63.80 72.98 C 64.06 72.48 64.57 71.47 64.83 70.97 C 64.57 71.47 64.06 72.48 63.80 72.98 Z" />
<path fill="#a46055" d=" M 64.83 70.97 L 65.81 71.14 C 66.63 71.28 68.28 71.55 69.10 71.69 C 68.26 74.77 65.50 76.33 62.77 77.48 C 62.92 76.82 63.23 75.49 63.39 74.83 C 63.49 74.37 63.70 73.44 63.80 72.98 C 64.06 72.48 64.57 71.47 64.83 70.97 Z" />
<path fill="#cba7a0" d=" M 109.46 71.07 C 110.66 71.35 111.88 71.63 113.09 71.90 C 113.14 72.77 113.24 74.51 113.29 75.38 L 112.99 76.71 C 111.81 76.34 110.64 75.95 109.47 75.54 C 109.48 74.05 109.47 72.56 109.46 71.07 Z" />
<path fill="#cad3d8" d=" M 35.32 72.87 C 38.71 75.77 41.40 79.34 43.51 83.26 C 41.79 83.24 40.06 83.28 38.34 83.24 C 37.52 79.73 36.47 76.29 35.32 72.87 Z" />
<path fill="#f0f0f0" d=" M 132.59 83.21 C 134.69 79.36 137.32 75.81 140.73 73.01 C 140.21 74.56 139.67 76.11 139.13 77.66 C 138.49 79.34 137.93 81.05 137.47 82.79 C 135.85 82.96 134.22 83.12 132.59 83.21 Z" />
<path fill="#1e7721" d=" M 161.26 77.75 C 167.46 76.17 173.78 75.13 180.00 73.60 L 180.00 90.06 C 172.78 91.00 165.31 90.75 158.27 92.57 C 165.51 92.24 172.75 91.73 180.00 91.44 L 180.00 96.46 C 171.81 96.49 163.62 95.93 155.43 96.20 C 158.70 90.55 161.22 84.38 161.26 77.75 Z" />
<path fill="#fde5db" d=" M 158.49 74.55 C 158.93 80.92 157.10 87.10 154.58 92.87 C 153.48 92.79 152.38 92.71 151.27 92.64 C 151.20 91.53 151.21 90.42 151.30 89.31 C 151.42 89.07 151.64 88.60 151.76 88.36 L 151.57 89.28 C 151.20 90.76 152.72 93.21 154.15 91.46 C 156.45 86.07 157.04 80.18 158.49 74.55 Z" />
<path fill="#fce8dd" d=" M 18.29 76.79 C 19.59 81.55 20.66 86.38 21.81 91.18 C 19.59 86.71 18.73 81.72 18.29 76.79 Z" />
<path fill="#fce8dd" d=" M 42.02 77.15 C 44.69 78.17 47.36 79.22 50.13 79.94 C 50.64 80.50 51.65 81.62 52.16 82.18 L 50.74 83.09 C 49.02 83.21 47.29 83.28 45.57 83.29 C 44.44 81.21 43.25 79.17 42.02 77.15 Z" />
<path fill="#f0f0f0" d=" M 0.00 81.96 C 5.21 82.43 10.42 82.98 15.61 83.59 C 10.39 83.89 5.21 83.03 0.00 82.84 L 0.00 81.96 Z" />
<path fill="#a92027" d=" M 26.63 82.37 C 26.87 82.49 27.36 82.72 27.60 82.84 C 28.55 84.78 29.30 86.81 29.98 88.87 C 30.04 90.17 30.02 91.46 29.93 92.76 C 27.48 89.89 27.57 85.85 26.63 82.37 Z" />
<path fill="#ffffff" d=" M 0.00 85.40 C 5.68 85.76 11.37 85.99 17.05 86.30 L 17.23 86.84 C 11.49 87.04 5.74 86.64 0.00 86.74 L 0.00 85.40 Z" />
<path fill="#1f7721" d=" M 0.00 86.74 C 5.74 86.64 11.49 87.04 17.23 86.84 C 17.96 88.99 18.78 91.11 19.72 93.18 C 19.97 93.70 20.46 94.75 20.71 95.28 C 19.82 95.54 18.03 96.08 17.14 96.34 C 17.96 100.43 18.18 104.63 19.21 108.67 C 20.31 109.95 21.65 111.00 22.95 112.07 C 15.17 110.53 7.66 114.30 0.00 115.19 L 0.00 86.74 Z" />
<path fill="#000000" d=" M 37.18 88.03 C 37.68 88.05 38.69 88.11 39.19 88.13 C 40.89 96.01 41.54 104.09 43.82 111.85 L 44.12 113.11 C 43.70 112.95 42.85 112.64 42.43 112.48 C 40.50 104.39 38.90 96.18 37.18 88.03 Z" />
<path fill="#b2c3cb" d=" M 39.19 88.13 C 40.38 88.04 41.56 87.96 42.75 87.87 C 44.76 96.41 46.06 105.39 50.94 112.90 C 51.22 112.46 51.79 111.58 52.08 111.13 C 52.28 111.62 52.70 112.58 52.91 113.06 C 49.94 112.41 46.45 113.60 43.82 111.85 C 41.54 104.09 40.89 96.01 39.19 88.13 Z" />
<path fill="#f0f0f0" d=" M 42.75 87.87 C 44.23 87.68 45.31 88.12 46.00 89.19 C 48.53 96.37 49.16 104.08 52.08 111.13 C 51.79 111.58 51.22 112.46 50.94 112.90 C 46.06 105.39 44.76 96.41 42.75 87.87 Z" />
<path fill="#000000" d=" M 45.85 87.58 C 46.33 87.96 47.27 88.72 47.74 89.10 C 50.54 96.57 50.80 104.83 54.59 111.94 C 54.17 112.22 53.33 112.78 52.91 113.06 C 52.70 112.58 52.28 111.62 52.08 111.13 C 49.16 104.08 48.53 96.37 46.00 89.19 L 45.85 87.58 Z" />
<path fill="#fccfbd" d=" M 47.39 88.04 C 49.37 88.01 51.35 87.98 53.33 87.94 C 56.75 96.11 59.93 104.39 62.88 112.74 C 60.26 112.74 57.64 112.75 55.03 112.83 C 54.92 112.61 54.70 112.16 54.59 111.94 C 50.80 104.83 50.54 96.57 47.74 89.10 L 47.39 88.04 Z" />
<path fill="#fccfbc" d=" M 58.32 87.96 C 66.64 88.47 74.98 87.97 83.29 88.54 L 82.82 89.09 C 80.75 91.43 78.86 93.93 76.97 96.43 C 79.94 98.38 82.88 100.35 85.83 102.31 C 86.05 102.46 86.49 102.76 86.71 102.90 C 89.15 101.49 91.58 100.06 94.01 98.62 C 93.39 97.89 92.78 97.17 92.16 96.44 C 89.28 98.02 86.11 99.25 82.82 98.20 C 82.47 97.76 81.77 96.88 81.42 96.44 C 82.74 93.94 83.87 91.35 84.85 88.71 L 84.96 88.43 C 95.46 88.03 105.96 88.50 116.46 87.97 C 113.22 96.24 109.75 104.42 106.66 112.75 C 97.04 112.74 87.42 112.77 77.80 112.74 C 78.34 112.23 79.44 111.22 79.98 110.71 C 78.24 108.20 76.75 111.19 75.36 112.23 C 75.22 112.36 74.95 112.62 74.82 112.75 C 72.59 112.75 70.37 112.75 68.14 112.76 C 65.00 104.44 61.50 96.26 58.32 87.96 Z" />
<path fill="#fccfbd" d=" M 121.46 88.10 C 123.91 87.99 126.36 87.95 128.81 88.09 C 125.64 95.75 124.96 104.14 121.96 111.85 C 119.14 113.83 115.14 112.28 111.87 112.75 C 114.90 104.47 118.32 96.34 121.46 88.10 Z" />
<path fill="#000000" d=" M 128.81 88.09 L 130.50 87.72 L 130.26 89.27 C 127.57 96.65 126.96 104.63 123.71 111.82 C 123.24 112.17 122.30 112.86 121.84 113.21 L 121.96 111.85 C 124.96 104.14 125.64 95.75 128.81 88.09 Z" />
<path fill="#f0f0f0" d=" M 130.80 87.91 C 131.55 87.95 133.04 88.05 133.79 88.09 C 130.51 96.14 128.76 104.77 125.11 112.67 L 123.28 112.98 L 123.71 111.82 C 126.96 104.63 127.57 96.65 130.26 89.27 C 130.39 88.93 130.66 88.25 130.80 87.91 Z" />
<path fill="#b2c3cb" d=" M 133.79 88.09 C 134.55 88.09 136.05 88.09 136.81 88.09 C 135.91 92.03 135.39 96.04 134.79 100.03 C 134.07 104.29 133.59 108.74 131.31 112.51 C 129.28 113.00 127.17 112.71 125.11 112.67 C 128.76 104.77 130.51 96.14 133.79 88.09 Z" />
<path fill="#000000" d=" M 136.81 88.09 C 137.14 88.00 137.80 87.83 138.12 87.74 C 137.00 91.83 136.46 96.11 134.79 100.03 C 135.39 96.04 135.91 92.03 136.81 88.09 Z" />
<path fill="#000000" d=" M 82.82 89.09 C 83.33 88.99 84.34 88.80 84.85 88.71 C 83.87 91.35 82.74 93.94 81.42 96.44 C 81.77 96.88 82.47 97.76 82.82 98.20 C 83.87 99.53 84.90 100.89 85.83 102.31 C 82.88 100.35 79.94 98.38 76.97 96.43 C 78.86 93.93 80.75 91.43 82.82 89.09 Z" />
<path fill="#ffffff" d=" M 158.27 92.57 C 165.31 90.75 172.78 91.00 180.00 90.06 L 180.00 91.44 C 172.75 91.73 165.51 92.24 158.27 92.57 Z" />
<path fill="#000000" d=" M 141.32 95.66 C 142.61 95.49 143.01 96.14 142.52 97.61 C 141.22 97.79 140.82 97.14 141.32 95.66 Z" />
<path fill="#000000" d=" M 17.14 96.34 C 18.03 96.08 19.82 95.54 20.71 95.28 C 20.94 95.79 21.40 96.80 21.64 97.31 C 20.63 97.42 19.63 97.53 18.62 97.64 C 19.15 99.39 19.66 101.15 20.21 102.89 C 20.15 105.18 19.41 109.75 23.21 108.69 L 23.63 106.24 C 24.00 107.40 24.35 108.56 24.71 109.73 L 24.44 110.39 C 25.95 110.82 27.46 111.25 28.97 111.69 C 29.18 110.20 29.49 108.73 29.90 107.29 C 30.11 108.76 30.31 110.23 30.48 111.71 C 31.99 111.68 33.49 111.65 35.00 111.62 C 34.90 110.76 34.70 109.05 34.60 108.19 C 33.85 108.12 32.36 107.99 31.62 107.92 C 31.42 106.31 31.26 104.69 31.12 103.08 C 31.79 102.68 33.11 101.89 33.78 101.50 L 34.40 100.47 C 34.58 101.03 34.93 102.15 35.11 102.71 C 34.49 103.02 33.25 103.63 32.63 103.94 C 32.75 104.61 32.99 105.95 33.12 106.62 C 33.88 106.69 35.40 106.83 36.17 106.90 L 36.38 107.96 C 36.11 109.55 35.74 111.25 36.38 112.81 C 32.08 112.79 27.76 112.84 23.51 112.17 L 22.95 112.07 C 21.65 111.00 20.31 109.95 19.21 108.67 C 18.18 104.63 17.96 100.43 17.14 96.34 Z" />
<path fill="#f0f0f0" d=" M 155.16 96.59 L 155.43 96.20 C 163.62 95.93 171.81 96.49 180.00 96.46 L 180.00 97.98 C 172.36 97.57 164.72 97.23 157.09 96.72 C 156.61 96.68 155.65 96.62 155.16 96.59 Z" />
<path fill="#ffffff" d=" M 18.62 97.64 C 19.63 97.53 20.63 97.42 21.64 97.31 C 21.62 100.20 21.30 103.08 21.21 105.97 C 21.87 105.72 23.19 105.20 23.85 104.95 C 23.94 102.34 23.54 99.74 23.29 97.16 C 24.42 97.37 25.55 97.59 26.67 97.86 C 26.46 101.87 26.84 106.12 24.71 109.73 C 24.35 108.56 24.00 107.40 23.63 106.24 L 23.21 108.69 C 19.41 109.75 20.15 105.18 20.21 102.89 C 19.66 101.15 19.15 99.39 18.62 97.64 Z" />
<path fill="#daa090" d=" M 82.82 98.20 C 86.11 99.25 89.28 98.02 92.16 96.44 C 92.78 97.17 93.39 97.89 94.01 98.62 C 91.58 100.06 89.15 101.49 86.71 102.90 C 86.49 102.76 86.05 102.46 85.83 102.31 C 84.90 100.89 83.87 99.53 82.82 98.20 Z" />
<path fill="#1e7721" d=" M 157.09 96.72 C 164.72 97.23 172.36 97.57 180.00 97.98 L 180.00 114.06 C 171.58 113.08 163.16 112.09 154.74 111.14 C 155.79 106.38 156.17 101.50 157.09 96.72 Z" />
<path fill="#b2c3cb" d=" M 26.67 97.86 L 27.75 98.22 C 27.95 99.33 28.16 100.43 28.39 101.54 L 29.24 102.95 C 29.49 104.39 29.71 105.84 29.90 107.29 C 29.49 108.73 29.18 110.20 28.97 111.69 C 27.46 111.25 25.95 110.82 24.44 110.39 L 24.71 109.73 C 26.84 106.12 26.46 101.87 26.67 97.86 Z" />
<path fill="#ffffff" d=" M 29.30 97.97 C 30.91 98.12 32.52 98.28 34.12 98.45 C 34.19 98.95 34.33 99.97 34.40 100.47 L 33.78 101.50 C 33.11 101.89 31.79 102.68 31.12 103.08 C 31.26 104.69 31.42 106.31 31.62 107.92 C 32.36 107.99 33.85 108.12 34.60 108.19 C 34.70 109.05 34.90 110.76 35.00 111.62 C 33.49 111.65 31.99 111.68 30.48 111.71 C 30.31 110.23 30.11 108.76 29.90 107.29 C 29.71 105.84 29.49 104.39 29.24 102.95 C 29.25 101.29 29.27 99.63 29.30 97.97 Z" />
<path fill="#f7f8fa" d=" M 146.89 98.16 C 148.19 98.01 149.50 97.92 150.81 97.81 L 151.01 98.53 C 150.80 101.13 149.48 103.91 150.82 106.39 C 153.90 107.15 153.38 104.23 153.29 102.19 C 153.09 101.85 152.70 101.18 152.51 100.84 C 152.35 100.20 152.04 98.92 151.88 98.28 C 153.14 98.18 154.40 98.07 155.66 97.95 C 154.32 101.40 154.31 105.12 153.86 108.74 C 152.99 109.16 152.12 109.59 151.25 110.02 C 151.19 109.22 151.07 107.61 151.01 106.81 C 150.78 107.58 150.32 109.11 150.10 109.88 C 149.65 109.62 148.77 109.11 148.32 108.85 C 147.66 105.31 147.69 101.68 146.89 98.16 Z" />
<path fill="#ffffff" d=" M 140.03 99.05 C 141.64 99.02 143.25 99.01 144.86 98.99 C 144.89 100.59 144.93 102.19 144.97 103.79 C 144.27 106.64 143.29 109.41 142.24 112.15 L 141.53 112.09 C 140.87 112.04 139.56 111.93 138.91 111.88 C 139.15 110.93 139.40 109.98 139.65 109.04 C 143.21 109.42 142.84 105.95 143.05 103.46 C 142.38 103.17 141.04 102.59 140.38 102.30 L 139.80 101.32 C 139.86 100.75 139.97 99.61 140.03 99.05 Z" />
<path fill="#b2c3ca" d=" M 144.97 103.79 C 145.55 101.89 146.15 100.00 146.89 98.16 C 147.69 101.68 147.66 105.31 148.32 108.85 C 148.77 109.11 149.65 109.62 150.10 109.88 C 149.38 111.79 146.74 111.46 145.19 112.23 C 145.08 110.97 144.96 109.71 144.83 108.46 C 144.57 109.43 144.06 111.37 143.80 112.35 C 143.41 112.30 142.63 112.20 142.24 112.15 C 143.29 109.41 144.27 106.64 144.97 103.79 Z" />
<path fill="#494d4e" d=" M 150.82 106.39 C 149.48 103.91 150.80 101.13 151.01 98.53 C 151.39 99.11 152.14 100.27 152.51 100.84 C 152.70 101.18 153.09 101.85 153.29 102.19 C 153.38 104.23 153.90 107.15 150.82 106.39 Z" />
<path fill="#000000" d=" M 139.23 104.07 C 139.38 103.38 139.66 102.00 139.80 101.32 L 140.38 102.30 C 141.04 102.59 142.38 103.17 143.05 103.46 C 142.84 105.95 143.21 109.42 139.65 109.04 C 139.40 109.98 139.15 110.93 138.91 111.88 C 139.56 111.93 140.87 112.04 141.53 112.09 C 140.26 112.38 138.99 112.69 137.73 113.02 C 137.94 110.91 138.27 108.82 138.66 106.74 C 141.43 108.36 142.41 103.21 139.23 104.07 Z" />
<path fill="#1a1a1a" d=" M 151.23 102.24 C 151.77 102.74 151.77 102.74 151.23 102.24 Z" />
<path fill="#7d151e" d=" M 32.63 103.94 C 33.25 103.63 34.49 103.02 35.11 102.71 C 35.54 104.09 35.87 105.49 36.17 106.90 C 35.40 106.83 33.88 106.69 33.12 106.62 C 32.99 105.95 32.75 104.61 32.63 103.94 Z" />
<path fill="#7d151e" d=" M 139.23 104.07 C 142.41 103.21 141.43 108.36 138.66 106.74 C 138.81 106.08 139.09 104.74 139.23 104.07 Z" />
<path fill="#7d151e" d=" M 36.38 107.96 C 37.27 109.38 38.16 111.28 36.95 112.82 L 36.38 112.81 C 35.74 111.25 36.11 109.55 36.38 107.96 Z" />
<path fill="#000000" d=" M 75.36 112.23 C 76.75 111.19 78.24 108.20 79.98 110.71 C 79.44 111.22 78.34 112.23 77.80 112.74 C 77.19 112.61 75.97 112.36 75.36 112.23 Z" />
<path fill="#cad3d8" d=" M 0.00 115.19 C 7.66 114.30 15.17 110.53 22.95 112.07 L 23.51 112.17 C 22.42 112.56 21.33 112.97 20.25 113.39 C 13.56 115.91 6.66 117.83 0.00 120.42 L 0.00 118.63 C 7.18 116.33 14.58 114.70 21.61 111.94 C 14.19 112.33 7.19 115.07 0.00 116.73 L 0.00 115.19 Z" />
<path fill="#ffffff" d=" M 153.79 111.01 L 154.74 111.14 C 163.16 112.09 171.58 113.08 180.00 114.06 L 180.00 115.57 C 171.66 113.98 163.19 113.15 154.88 111.42 L 153.79 111.01 Z" />
<path fill="#1e7721" d=" M 154.88 111.42 C 163.19 113.15 171.66 113.98 180.00 115.57 L 180.00 116.95 L 179.99 117.88 C 171.50 116.35 163.05 114.63 154.55 113.19 C 162.96 115.46 171.56 117.00 180.00 119.15 L 180.00 151.81 C 172.33 146.31 165.04 140.26 157.17 135.04 C 164.76 141.15 172.51 147.07 180.00 153.31 L 180.00 164.77 C 168.08 154.54 156.36 144.07 144.32 133.97 C 156.13 145.37 168.13 156.57 180.00 167.90 L 180.00 170.96 L 179.99 172.08 C 172.94 165.22 165.52 158.68 159.01 151.31 C 158.65 151.25 157.94 151.12 157.59 151.06 C 164.78 159.38 172.71 167.03 180.00 175.26 L 180.00 180.00 L 166.54 180.00 C 161.62 174.43 156.79 168.77 152.04 163.06 C 151.89 154.74 151.43 145.16 144.95 139.06 C 140.31 134.57 133.68 133.29 127.43 133.97 C 130.25 132.07 132.78 129.74 134.81 127.01 C 136.91 126.64 139.46 126.81 140.75 124.76 C 143.14 121.34 146.96 119.64 150.34 117.41 C 152.52 116.00 153.86 113.75 154.88 111.42 Z" />
<path fill="#1e7721" d=" M 0.00 116.73 C 7.19 115.07 14.19 112.33 21.61 111.94 C 14.58 114.70 7.18 116.33 0.00 118.63 L 0.00 116.73 Z" />
<path fill="#ffffff" d=" M 154.55 113.19 C 163.05 114.63 171.50 116.35 179.99 117.88 L 180.00 116.95 L 180.00 119.15 C 171.56 117.00 162.96 115.46 154.55 113.19 Z" />
<path fill="#1f7721" d=" M 0.00 120.42 C 6.66 117.83 13.56 115.91 20.25 113.39 C 21.90 115.44 23.90 117.31 26.70 117.35 C 29.28 119.53 31.47 122.10 33.62 124.69 C 22.37 129.18 11.17 133.81 0.00 138.52 L 0.00 120.42 Z" />
<path fill="#000000" d=" M 26.70 117.35 C 27.85 117.39 29.01 117.42 30.17 117.41 C 30.57 117.99 31.37 119.13 31.77 119.70 C 33.08 121.56 34.55 123.31 36.06 125.01 C 37.19 124.93 38.33 124.86 39.46 124.82 C 39.59 125.21 39.84 125.98 39.96 126.37 C 39.57 126.51 38.80 126.81 38.41 126.95 C 38.10 127.07 37.47 127.31 37.15 127.43 C 36.37 126.82 34.81 125.61 34.03 125.01 L 33.62 124.69 C 31.47 122.10 29.28 119.53 26.70 117.35 Z" />
<path fill="#8f979e" d=" M 30.17 117.41 C 31.94 117.39 33.72 117.38 35.49 117.43 L 34.42 117.64 C 33.51 118.29 32.63 118.98 31.77 119.70 C 31.37 119.13 30.57 117.99 30.17 117.41 Z" />
<path fill="#000000" d=" M 35.49 117.43 C 36.42 117.44 37.35 117.48 38.29 117.53 C 38.49 118.94 38.69 120.35 38.91 121.76 C 37.23 120.59 35.76 119.18 34.42 117.64 L 35.49 117.43 Z" />
<path fill="#000000" d=" M 43.17 117.43 C 46.80 117.52 50.46 117.30 54.07 117.82 C 54.21 117.95 54.49 118.21 54.63 118.34 C 55.48 118.68 56.13 118.32 56.60 117.26 L 56.81 117.60 C 57.91 119.35 59.07 121.05 60.29 122.72 C 61.15 122.03 62.03 121.37 62.94 120.75 L 64.52 120.55 L 63.61 121.71 C 62.99 122.49 62.36 123.27 61.72 124.05 C 63.70 123.98 65.67 123.91 67.64 123.85 C 67.05 124.90 66.12 125.53 64.86 125.74 C 65.11 126.31 65.62 127.45 65.87 128.02 C 65.71 128.88 65.40 130.60 65.24 131.46 C 66.17 131.44 68.03 131.40 68.96 131.39 C 65.47 131.34 61.66 132.77 58.40 131.06 C 55.35 128.86 52.18 126.81 49.43 124.24 C 47.80 124.39 46.17 124.55 44.54 124.73 L 43.81 124.80 C 44.11 124.34 44.72 123.41 45.03 122.94 C 46.95 122.87 48.88 122.86 50.81 122.90 C 51.92 121.78 53.02 120.66 54.09 119.52 C 51.01 117.74 47.50 118.69 44.28 119.51 C 44.02 120.66 43.76 121.81 43.51 122.96 C 43.17 121.13 43.10 119.28 43.17 117.43 Z" />
<path fill="#878c92" d=" M 54.07 117.82 C 54.21 117.95 54.49 118.21 54.63 118.34 C 54.49 118.21 54.21 117.95 54.07 117.82 Z" />
<path fill="#fccfbf" d=" M 56.81 117.60 C 59.40 117.51 61.99 117.48 64.58 117.47 C 64.82 118.02 65.30 119.12 65.54 119.67 C 64.89 119.94 63.59 120.48 62.94 120.75 C 62.03 121.37 61.15 122.03 60.29 122.72 C 59.07 121.05 57.91 119.35 56.81 117.60 Z" />
<path fill="#000000" d=" M 80.60 117.88 C 85.15 117.20 89.91 117.07 94.49 117.61 C 95.25 117.83 96.76 118.26 97.52 118.47 C 97.12 118.81 96.31 119.48 95.91 119.82 C 90.87 118.69 85.77 117.93 80.60 117.88 Z" />
<path fill="#fccfbd" d=" M 94.49 117.61 C 97.97 117.44 101.45 117.49 104.93 117.49 C 104.11 120.12 103.23 122.72 102.34 125.33 C 99.17 126.57 95.97 127.78 92.62 128.44 C 93.75 127.07 94.89 125.71 96.03 124.34 C 94.50 122.30 91.92 122.21 89.59 121.95 L 89.61 121.32 C 87.17 121.50 84.73 121.72 82.34 122.24 C 80.87 122.43 79.40 122.59 77.93 122.74 C 78.30 124.44 78.66 126.13 79.02 127.83 C 77.10 126.95 75.21 126.03 73.30 125.12 C 71.24 123.11 70.84 120.12 69.89 117.53 C 73.46 117.41 77.03 117.74 80.60 117.88 C 85.77 117.93 90.87 118.69 95.91 119.82 C 96.31 119.48 97.12 118.81 97.52 118.47 C 96.76 118.26 95.25 117.83 94.49 117.61 Z" />
<path fill="#fccfbc" d=" M 110.16 117.43 C 113.16 117.49 116.17 117.54 119.18 117.52 C 117.91 118.81 116.72 120.17 115.72 121.68 C 113.63 120.86 110.80 118.76 108.91 121.16 C 109.22 120.22 109.84 118.36 110.16 117.43 Z" />
<path fill="#000000" d=" M 119.18 117.52 C 122.56 117.58 125.96 117.27 129.34 117.54 C 129.63 117.93 130.22 118.72 130.51 119.12 C 130.86 118.59 131.57 117.55 131.92 117.02 C 131.63 118.17 131.32 119.30 131.01 120.44 C 128.44 118.91 125.48 118.02 122.50 118.74 C 122.00 119.17 121.00 120.03 120.51 120.47 L 122.42 120.77 C 122.02 121.38 121.62 122.00 121.22 122.61 C 120.33 120.69 119.14 120.16 117.67 121.03 C 118.80 122.06 119.53 123.33 119.87 124.86 C 119.21 124.41 117.90 123.52 117.25 123.07 C 114.82 124.51 112.64 126.30 110.34 127.94 C 110.44 128.31 110.62 129.04 110.71 129.41 L 109.00 130.67 C 109.00 128.92 109.27 127.19 109.70 125.51 C 109.18 125.87 108.15 126.61 107.63 126.97 L 107.42 125.14 C 109.75 124.11 112.21 123.44 114.60 122.57 C 113.56 122.36 111.48 121.92 110.44 121.71 C 110.23 121.63 109.80 121.48 109.58 121.41 L 108.91 121.16 C 110.80 118.76 113.63 120.86 115.72 121.68 C 116.72 120.17 117.91 118.81 119.18 117.52 Z" />
<path fill="#000000" d=" M 136.50 117.52 C 137.76 117.48 139.03 117.43 140.29 117.39 L 139.74 118.05 C 138.68 119.45 137.42 120.68 135.99 121.72 C 136.17 120.32 136.34 118.92 136.50 117.52 Z" />
<path fill="#949ca1" d=" M 140.29 117.39 C 141.76 117.32 143.23 117.33 144.70 117.35 C 143.84 118.52 142.99 119.69 142.12 120.85 C 142.31 120.31 142.70 119.23 142.90 118.69 C 142.11 118.53 140.53 118.21 139.74 118.05 L 140.29 117.39 Z" />
<path fill="#000000" d=" M 144.70 117.35 C 146.58 117.38 148.46 117.39 150.34 117.41 C 146.96 119.64 143.14 121.34 140.75 124.76 C 139.46 126.81 136.91 126.64 134.81 127.01 C 134.96 126.50 135.27 125.49 135.42 124.98 C 138.60 125.70 140.50 123.10 142.12 120.85 C 142.99 119.69 143.84 118.52 144.70 117.35 Z" />
<path fill="#ffffff" d=" M 31.77 119.70 C 32.63 118.98 33.51 118.29 34.42 117.64 C 35.76 119.18 37.23 120.59 38.91 121.76 C 39.07 122.78 39.26 123.80 39.46 124.82 C 38.33 124.86 37.19 124.93 36.06 125.01 C 34.55 123.31 33.08 121.56 31.77 119.70 Z" />
<path fill="#c3ccd3" d=" M 122.50 118.74 C 125.48 118.02 128.44 118.91 131.01 120.44 C 131.03 121.19 131.06 122.69 131.07 123.44 L 129.99 123.23 C 129.50 123.14 128.51 122.95 128.02 122.85 C 125.69 122.24 124.08 120.42 122.50 118.74 Z" />
<path fill="#ffffff" d=" M 139.74 118.05 C 140.53 118.21 142.11 118.53 142.90 118.69 C 142.70 119.23 142.31 120.31 142.12 120.85 C 140.50 123.10 138.60 125.70 135.42 124.98 C 135.64 123.90 135.83 122.81 135.99 121.72 C 137.42 120.68 138.68 119.45 139.74 118.05 Z" />
<path fill="#c2cdd3" d=" M 44.28 119.51 C 47.50 118.69 51.01 117.74 54.09 119.52 C 53.02 120.66 51.92 121.78 50.81 122.90 C 48.88 122.86 46.95 122.87 45.03 122.94 L 43.51 122.96 C 43.76 121.81 44.02 120.66 44.28 119.51 Z" />
<path fill="#e0e5e8" d=" M 120.51 120.47 C 121.00 120.03 122.00 119.17 122.50 118.74 C 124.08 120.42 125.69 122.24 128.02 122.85 C 125.51 122.21 122.94 122.55 121.97 125.25 L 120.78 123.23 C 120.32 124.31 119.89 125.41 119.50 126.52 C 117.53 128.15 115.50 129.71 113.30 131.02 C 112.74 131.34 112.18 131.65 111.62 131.95 C 111.39 131.31 110.94 130.04 110.71 129.41 C 110.62 129.04 110.44 128.31 110.34 127.94 C 112.64 126.30 114.82 124.51 117.25 123.07 C 117.90 123.52 119.21 124.41 119.87 124.86 C 119.53 123.33 118.80 122.06 117.67 121.03 C 119.14 120.16 120.33 120.69 121.22 122.61 C 121.62 122.00 122.02 121.38 122.42 120.77 L 120.51 120.47 Z" />
<path fill="#f0f0f0" d=" M 55.63 120.15 C 56.01 120.51 56.39 120.86 56.76 121.22 C 55.13 122.62 53.52 124.05 51.71 125.21 C 52.29 123.05 54.20 121.73 55.63 120.15 Z" />
<path fill="#000000" d=" M 82.34 122.24 C 84.73 121.72 87.17 121.50 89.61 121.32 L 89.59 121.95 L 89.55 123.10 C 90.35 123.27 91.94 123.63 92.74 123.80 C 89.35 124.36 86.04 125.27 82.67 125.91 C 84.55 124.54 86.71 123.64 88.79 122.62 C 85.87 122.71 83.02 123.33 80.36 124.54 C 80.10 124.27 79.56 123.74 79.30 123.47 C 80.06 123.16 81.58 122.55 82.34 122.24 Z" />
<path fill="#ffffff" d=" M 109.30 121.32 L 109.58 121.41 C 109.80 121.48 110.23 121.63 110.44 121.71 C 111.48 121.92 113.56 122.36 114.60 122.57 C 112.21 123.44 109.75 124.11 107.42 125.14 C 108.04 123.86 108.68 122.59 109.30 121.32 Z" />
<path fill="#ffffff" d=" M 61.72 124.05 C 62.36 123.27 62.99 122.49 63.61 121.71 C 65.27 121.80 66.72 122.42 67.64 123.85 C 65.67 123.91 63.70 123.98 61.72 124.05 Z" />
<path fill="#d99e8e" d=" M 77.93 122.74 C 79.40 122.59 80.87 122.43 82.34 122.24 C 81.58 122.55 80.06 123.16 79.30 123.47 C 79.56 123.74 80.10 124.27 80.36 124.54 C 83.02 123.33 85.87 122.71 88.79 122.62 C 86.71 123.64 84.55 124.54 82.67 125.91 C 86.04 125.27 89.35 124.36 92.74 123.80 C 91.94 123.63 90.35 123.27 89.55 123.10 L 89.59 121.95 C 91.92 122.21 94.50 122.30 96.03 124.34 C 94.89 125.71 93.75 127.07 92.62 128.44 C 90.81 128.63 88.99 128.77 87.18 128.86 C 87.53 128.23 88.23 126.98 88.59 126.35 C 89.40 126.42 91.02 126.55 91.83 126.62 C 91.86 126.22 91.92 125.43 91.95 125.03 C 90.51 125.27 89.08 125.52 87.64 125.79 C 87.14 126.84 86.62 127.90 86.10 128.95 C 83.73 128.66 81.34 128.42 79.02 127.83 C 78.66 126.13 78.30 124.44 77.93 122.74 Z" />
<path fill="#f7f8fa" d=" M 54.11 125.59 C 55.06 124.70 56.01 123.81 56.95 122.92 C 58.89 124.24 60.82 125.58 62.81 126.83 C 61.51 127.70 60.22 128.58 58.92 129.46 C 57.28 128.21 55.70 126.90 54.11 125.59 Z" />
<path fill="#000000" d=" M 121.97 125.25 C 122.94 122.55 125.51 122.21 128.02 122.85 C 128.51 122.95 129.50 123.14 129.99 123.23 C 130.21 123.67 130.64 124.53 130.86 124.97 L 130.27 124.86 C 129.24 124.68 128.22 124.50 127.19 124.32 C 123.90 126.47 120.68 128.75 117.31 130.79 C 116.09 131.59 114.61 131.64 113.30 131.02 C 115.50 129.71 117.53 128.15 119.50 126.52 C 119.89 125.41 120.32 124.31 120.78 123.23 L 121.97 125.25 Z" />
<path fill="#1e7721" d=" M 44.54 124.73 C 46.17 124.55 47.80 124.39 49.43 124.24 C 52.18 126.81 55.35 128.86 58.40 131.06 C 53.24 131.18 47.20 129.55 44.54 124.73 Z" />
<path fill="#1e7821" d=" M 127.19 124.32 C 128.22 124.50 129.24 124.68 130.27 124.86 C 127.66 129.24 122.23 131.25 117.31 130.79 C 120.68 128.75 123.90 126.47 127.19 124.32 Z" />
<path fill="#ffffff" d=" M 0.00 138.52 C 11.17 133.81 22.37 129.18 33.62 124.69 L 34.03 125.01 C 22.67 130.24 11.30 135.44 0.00 140.79 L 0.00 138.52 Z" />
<path fill="#000000" d=" M 72.39 124.71 L 73.30 125.12 C 75.21 126.03 77.10 126.95 79.02 127.83 C 81.34 128.42 83.73 128.66 86.10 128.95 C 86.62 127.90 87.14 126.84 87.64 125.79 C 89.08 125.52 90.51 125.27 91.95 125.03 C 91.92 125.43 91.86 126.22 91.83 126.62 C 91.02 126.55 89.40 126.42 88.59 126.35 C 88.23 126.98 87.53 128.23 87.18 128.86 C 88.99 128.77 90.81 128.63 92.62 128.44 C 95.97 127.78 99.17 126.57 102.34 125.33 C 102.13 126.44 101.90 127.55 101.67 128.67 L 101.44 128.49 C 101.22 128.32 100.79 127.96 100.57 127.79 C 95.54 129.33 90.34 130.66 85.04 130.27 C 80.66 130.34 76.74 128.25 72.76 126.73 C 72.67 126.22 72.48 125.21 72.39 124.71 Z" />
<path fill="#1e7721" d=" M 0.00 140.79 C 11.30 135.44 22.67 130.24 34.03 125.01 C 34.81 125.61 36.37 126.82 37.15 127.43 C 24.73 134.04 12.37 140.76 0.00 147.46 L 0.00 140.79 Z" />
<path fill="#e0e5e8" d=" M 64.86 125.74 C 65.61 125.83 67.12 126.01 67.87 126.10 C 68.22 127.87 68.59 129.62 68.96 131.39 C 68.03 131.40 66.17 131.44 65.24 131.46 C 65.40 130.60 65.71 128.88 65.87 128.02 C 65.62 127.45 65.11 126.31 64.86 125.74 Z" />
<path fill="#cad3d8" d=" M 106.04 131.51 C 106.35 129.96 106.05 127.91 107.63 126.97 C 108.15 126.61 109.18 125.87 109.70 125.51 C 109.27 127.19 109.00 128.92 109.00 130.67 L 108.97 131.45 C 107.99 131.47 107.01 131.49 106.04 131.51 Z" />
<path fill="#ffffff" d=" M 37.15 127.43 C 37.47 127.31 38.10 127.07 38.41 126.95 C 25.59 134.57 12.75 142.17 0.00 149.90 L 0.00 147.46 C 12.37 140.76 24.73 134.04 37.15 127.43 Z" />
<path fill="#1e7721" d=" M 38.41 126.95 C 38.80 126.81 39.57 126.51 39.96 126.37 C 41.55 129.83 44.79 131.99 47.62 134.36 C 40.74 133.88 33.86 137.21 29.78 142.71 C 27.42 146.01 26.60 150.10 26.00 154.04 C 17.44 160.37 8.59 166.29 0.00 172.58 L 0.00 158.89 C 8.58 153.37 17.52 148.43 26.13 142.98 C 17.32 147.49 8.70 152.37 0.00 157.08 L 0.00 149.90 C 12.75 142.17 25.59 134.57 38.41 126.95 Z" />
<path fill="#c2cdd3" d=" M 62.81 126.83 C 64.28 127.80 64.22 129.53 64.44 131.10 C 63.35 131.18 62.27 131.27 61.18 131.37 C 60.43 130.73 59.68 130.09 58.92 129.46 C 60.22 128.58 61.51 127.70 62.81 126.83 Z" />
<path fill="#ffffff" d=" M 72.76 126.73 C 76.74 128.25 80.66 130.34 85.04 130.27 C 90.34 130.66 95.54 129.33 100.57 127.79 C 100.79 127.96 101.22 128.32 101.44 128.49 L 101.81 128.79 L 99.99 129.58 L 99.24 129.92 C 94.89 132.53 89.70 131.18 84.91 131.52 C 80.39 131.96 76.06 129.63 72.76 126.73 Z" />
<path fill="#808e96" d=" M 74.06 130.21 C 75.44 129.98 75.96 130.56 75.63 131.94 C 74.24 132.17 73.72 131.59 74.06 130.21 Z" />
<path fill="#000000" d=" M 99.24 129.92 L 99.99 129.58 C 100.14 129.93 100.42 130.62 100.57 130.96 L 99.96 131.24 C 99.78 130.91 99.42 130.25 99.24 129.92 Z" />
<path fill="#858a90" d=" M 99.96 131.24 L 100.57 130.96 C 100.42 131.03 100.11 131.17 99.96 131.24 Z" />
<path fill="#000000" d=" M 29.78 142.71 C 33.86 137.21 40.74 133.88 47.62 134.36 C 52.95 135.30 58.29 136.38 63.73 136.46 C 71.23 143.86 82.48 147.12 92.84 145.81 C 99.49 144.38 106.45 142.07 110.92 136.62 C 111.18 136.63 111.70 136.64 111.95 136.65 C 112.01 137.26 112.12 138.48 112.17 139.09 C 110.45 148.57 101.43 153.91 94.49 159.51 C 94.04 161.32 93.48 163.10 92.70 164.80 C 92.75 165.41 92.83 166.64 92.87 167.26 C 92.92 167.61 93.03 168.30 93.08 168.65 C 89.25 168.66 85.39 169.21 81.96 171.01 C 82.16 169.76 82.35 168.52 82.53 167.27 C 82.15 165.43 81.51 163.66 80.93 161.87 C 85.12 159.38 89.91 158.26 94.76 158.38 C 95.17 156.40 95.58 154.42 95.98 152.44 C 90.42 152.36 84.56 152.72 79.76 155.85 C 79.82 156.54 79.95 157.93 80.02 158.62 C 73.13 155.06 66.65 149.34 64.70 141.56 C 64.34 140.19 63.80 138.88 63.24 137.59 C 56.84 137.98 50.42 137.55 44.02 137.83 C 36.03 138.70 29.41 145.96 29.26 153.99 C 29.21 162.66 29.28 171.33 29.25 180.00 L 26.00 180.00 C 26.00 173.50 26.02 167.00 25.95 160.50 C 25.95 160.06 25.94 159.18 25.94 158.75 C 25.91 157.84 25.86 156.02 25.84 155.11 C 25.88 154.84 25.96 154.31 26.00 154.04 C 26.60 150.10 27.42 146.01 29.78 142.71 Z" />
<path fill="#000000" d=" M 113.21 136.66 C 117.98 135.95 122.79 135.34 127.43 133.97 C 133.68 133.29 140.31 134.57 144.95 139.06 C 151.43 145.16 151.89 154.74 152.04 163.06 C 152.04 163.58 152.05 164.63 152.06 165.15 C 152.04 166.65 152.04 168.15 152.04 169.66 C 152.05 170.09 152.06 170.96 152.07 171.40 C 152.07 174.26 152.01 177.13 151.98 180.00 L 148.50 180.00 C 147.93 169.13 150.02 157.86 146.54 147.33 C 145.05 142.45 140.62 139.33 136.06 137.60 C 129.02 136.48 121.84 137.61 114.76 136.99 L 113.21 136.66 Z" />
<path fill="#ffffff" d=" M 144.32 133.97 C 156.36 144.07 168.08 154.54 180.00 164.77 L 180.00 167.90 C 168.13 156.57 156.13 145.37 144.32 133.97 Z" />
<path fill="#c2cdd3" d=" M 157.17 135.04 C 165.04 140.26 172.33 146.31 180.00 151.81 L 180.00 153.31 C 172.51 147.07 164.76 141.15 157.17 135.04 Z" />
<path fill="#ffffff" d=" M 63.73 136.46 C 65.36 136.52 67.00 136.53 68.63 136.68 C 69.04 142.70 76.12 142.31 80.53 142.38 C 84.89 143.72 89.52 144.00 93.74 142.01 C 97.92 142.60 103.43 142.22 105.55 137.91 C 106.53 135.79 109.09 136.82 110.92 136.62 C 106.45 142.07 99.49 144.38 92.84 145.81 C 82.48 147.12 71.23 143.86 63.73 136.46 Z" />
<path fill="#000000" d=" M 71.66 137.02 C 73.76 136.56 75.92 136.56 78.07 136.55 C 78.64 136.48 79.78 136.34 80.35 136.27 C 81.14 137.00 81.17 138.11 81.34 139.10 C 81.08 140.20 80.82 141.29 80.53 142.38 C 76.12 142.31 69.04 142.70 68.63 136.68 C 68.95 136.85 69.59 137.20 69.91 137.37 C 71.70 141.53 76.51 140.85 80.17 140.59 C 77.28 139.51 74.45 138.33 71.66 137.02 Z" />
<path fill="#fde5db" d=" M 78.07 136.55 C 78.49 136.34 79.34 135.91 79.76 135.69 L 80.35 136.27 C 79.78 136.34 78.64 136.48 78.07 136.55 Z" />
<path fill="#b2c3cb" d=" M 81.92 136.65 C 85.34 136.08 88.84 136.09 92.29 136.44 C 92.75 138.30 93.24 140.15 93.74 142.01 C 89.52 144.00 84.89 143.72 80.53 142.38 C 80.82 141.29 81.08 140.20 81.34 139.10 C 81.48 138.49 81.77 137.27 81.92 136.65 Z" />
<path fill="#948f8f" d=" M 93.84 136.73 C 94.76 135.14 97.22 135.53 98.06 137.01 C 96.63 137.22 95.22 137.13 93.84 136.73 Z" />
<path fill="#d99e8e" d=" M 69.91 137.37 C 70.35 137.28 71.22 137.11 71.66 137.02 C 74.45 138.33 77.28 139.51 80.17 140.59 C 76.51 140.85 71.70 141.53 69.91 137.37 Z" />
<path fill="#010100" d=" M 92.29 136.44 L 93.84 136.73 C 95.22 137.13 96.63 137.22 98.06 137.01 C 100.54 137.06 103.58 135.86 105.55 137.91 C 103.43 142.22 97.92 142.60 93.74 142.01 C 93.24 140.15 92.75 138.30 92.29 136.44 Z" />
<path fill="#ffffff" d=" M 112.64 136.64 L 113.21 136.66 L 114.76 136.99 C 115.05 137.27 115.64 137.83 115.93 138.12 C 114.05 151.15 103.92 161.10 92.87 167.26 C 92.83 166.64 92.75 165.41 92.70 164.80 C 93.48 163.10 94.04 161.32 94.49 159.51 C 101.43 153.91 110.45 148.57 112.17 139.09 C 112.29 138.48 112.52 137.25 112.64 136.64 Z" />
<path fill="#afc2c9" d=" M 114.76 136.99 C 121.84 137.61 129.02 136.48 136.06 137.60 C 129.63 137.52 123.21 137.50 116.78 137.69 C 116.15 140.16 115.56 142.64 115.00 145.13 C 117.26 143.80 119.50 142.43 121.73 141.04 C 121.55 142.71 121.37 144.39 121.19 146.07 C 125.48 144.22 130.52 142.94 135.00 144.90 C 137.82 146.11 139.16 149.21 139.35 152.11 C 140.25 161.38 140.19 170.70 140.54 180.00 L 120.71 180.00 C 126.33 176.59 128.75 169.79 127.80 163.45 C 122.61 163.51 117.42 163.50 112.23 163.47 C 111.71 169.67 113.62 176.26 118.89 180.00 L 94.28 180.00 C 94.13 178.26 93.98 176.52 93.84 174.78 C 93.69 172.72 93.42 170.68 93.08 168.65 C 93.03 168.30 92.92 167.61 92.87 167.26 C 103.92 161.10 114.05 151.15 115.93 138.12 C 115.64 137.83 115.05 137.27 114.76 136.99 Z" />
<path fill="#ffffff" d=" M 29.26 153.99 C 29.41 145.96 36.03 138.70 44.02 137.83 C 50.42 137.55 56.84 137.98 63.24 137.59 C 63.80 138.88 64.34 140.19 64.70 141.56 C 66.65 149.34 73.13 155.06 80.02 158.62 C 80.28 159.71 80.59 160.80 80.93 161.87 C 81.51 163.66 82.15 165.43 82.53 167.27 C 75.99 163.12 69.74 158.12 65.51 151.54 C 64.02 149.31 63.32 146.59 61.65 144.48 C 59.30 142.75 56.61 141.56 54.06 140.14 C 54.70 142.75 55.42 145.34 56.17 147.92 C 52.07 145.92 47.82 143.03 43.01 144.14 C 38.73 144.70 36.64 149.08 36.11 152.92 C 34.87 161.92 36.74 170.98 36.20 180.00 L 29.25 180.00 C 29.28 171.33 29.21 162.66 29.26 153.99 Z" />
<path fill="#ffffff" d=" M 116.78 137.69 C 123.21 137.50 129.63 137.52 136.06 137.60 C 140.62 139.33 145.05 142.45 146.54 147.33 C 150.02 157.86 147.93 169.13 148.50 180.00 L 140.54 180.00 C 140.19 170.70 140.25 161.38 139.35 152.11 C 139.16 149.21 137.82 146.11 135.00 144.90 C 130.52 142.94 125.48 144.22 121.19 146.07 C 121.37 144.39 121.55 142.71 121.73 141.04 C 119.50 142.43 117.26 143.80 115.00 145.13 C 115.56 142.64 116.15 140.16 116.78 137.69 Z" />
<path fill="#885e54" d=" M 94.28 139.78 C 96.95 139.46 99.64 139.00 102.33 139.33 C 100.10 140.60 95.90 142.69 94.28 139.78 Z" />
<path fill="#afc2c9" d=" M 56.17 147.92 C 55.42 145.34 54.70 142.75 54.06 140.14 C 56.61 141.56 59.30 142.75 61.65 144.48 C 63.32 146.59 64.02 149.31 65.51 151.54 C 69.74 158.12 75.99 163.12 82.53 167.27 C 82.35 168.52 82.16 169.76 81.96 171.01 C 81.64 173.26 81.45 175.52 81.19 177.77 C 81.12 178.33 80.98 179.44 80.90 180.00 L 36.20 180.00 C 36.74 170.98 34.87 161.92 36.11 152.92 C 36.64 149.08 38.73 144.70 43.01 144.14 C 47.82 143.03 52.07 145.92 56.17 147.92 Z" />
<path fill="#fdcfbd" d=" M 86.94 147.51 C 94.05 147.92 101.08 145.63 107.17 142.09 C 105.19 146.84 101.17 150.20 96.39 151.90 C 96.29 151.46 96.09 150.59 96.00 150.16 C 93.17 148.93 90.00 149.27 87.00 149.21 C 83.59 149.19 79.78 149.49 77.32 152.18 C 74.45 149.42 71.66 146.49 69.72 142.98 C 75.15 145.42 80.91 147.58 86.94 147.51 Z" />
<path fill="#f7f8fa" d=" M 0.00 157.08 C 8.70 152.37 17.32 147.49 26.13 142.98 C 17.52 148.43 8.58 153.37 0.00 158.89 L 0.00 157.08 Z" />
<path fill="#b2c3ca" d=" M 151.79 144.93 C 153.52 146.27 155.23 147.64 156.90 149.05 C 156.96 150.10 155.02 150.43 155.04 148.94 C 153.93 147.62 152.85 146.28 151.79 144.93 Z" />
<path fill="#ffffff" d=" M 157.59 151.06 C 157.94 151.12 158.65 151.25 159.01 151.31 C 165.52 158.68 172.94 165.22 179.99 172.08 L 180.00 170.96 L 180.00 175.26 C 172.71 167.03 164.78 159.38 157.59 151.06 Z" />
<path fill="#2e8ac9" d=" M 79.76 155.85 C 84.56 152.72 90.42 152.36 95.98 152.44 C 95.58 154.42 95.17 156.40 94.76 158.38 C 89.91 158.26 85.12 159.38 80.93 161.87 C 80.59 160.80 80.28 159.71 80.02 158.62 C 79.95 157.93 79.82 156.54 79.76 155.85 Z" />
<path fill="#ffffff" d=" M 0.00 172.58 C 8.59 166.29 17.44 160.37 26.00 154.04 C 25.96 154.31 25.88 154.84 25.84 155.11 C 17.27 161.86 8.54 168.42 0.00 175.22 L 0.00 172.58 Z" />
<path fill="#1e7721" d=" M 0.00 175.22 C 8.54 168.42 17.27 161.86 25.84 155.11 C 25.86 156.02 25.91 157.84 25.94 158.75 C 17.37 165.91 8.65 172.91 0.01 180.00 L 0.00 180.00 L 0.00 175.22 Z" />
<path fill="#ffffff" d=" M 0.01 180.00 C 8.65 172.91 17.37 165.91 25.94 158.75 C 25.94 159.18 25.95 160.06 25.95 160.50 C 18.68 166.98 11.44 173.50 4.18 180.00 L 0.01 180.00 Z" />
<path fill="#1e7721" d=" M 4.18 180.00 C 11.44 173.50 18.68 166.98 25.95 160.50 C 26.02 167.00 26.00 173.50 26.00 180.00 L 4.18 180.00 Z" />
<path fill="#ffffff" d=" M 112.23 163.47 C 117.42 163.50 122.61 163.51 127.80 163.45 C 128.75 169.79 126.33 176.59 120.71 180.00 L 118.89 180.00 C 113.62 176.26 111.71 169.67 112.23 163.47 Z" />
<path fill="#ffffff" d=" M 152.04 163.06 C 156.79 168.77 161.62 174.43 166.54 180.00 L 163.83 180.00 C 159.85 175.09 156.12 169.99 152.06 165.15 C 152.05 164.63 152.04 163.58 152.04 163.06 Z" />
<path fill="#1f7721" d=" M 152.06 165.15 C 156.12 169.99 159.85 175.09 163.83 180.00 L 159.96 180.00 C 157.21 176.63 154.64 173.13 152.04 169.66 C 152.04 168.15 152.04 166.65 152.06 165.15 Z" />
<path fill="#2e8ac9" d=" M 81.96 171.01 C 85.39 169.21 89.25 168.66 93.08 168.65 C 93.42 170.68 93.69 172.72 93.84 174.78 C 89.50 175.13 85.26 176.24 81.19 177.77 C 81.45 175.52 81.64 173.26 81.96 171.01 Z" />
<path fill="#ffffff" d=" M 152.04 169.66 C 154.64 173.13 157.21 176.63 159.96 180.00 L 158.23 180.00 C 156.12 177.17 154.10 174.28 152.07 171.40 C 152.06 170.96 152.05 170.09 152.04 169.66 Z" />
<path fill="#1e7721" d=" M 152.07 171.40 C 154.10 174.28 156.12 177.17 158.23 180.00 L 151.98 180.00 C 152.01 177.13 152.07 174.26 152.07 171.40 Z" />
<path fill="#000000" d=" M 81.19 177.77 C 85.26 176.24 89.50 175.13 93.84 174.78 C 93.98 176.52 94.13 178.26 94.28 180.00 L 80.90 180.00 C 80.98 179.44 81.12 178.33 81.19 177.77 Z" />
</svg>
