<?xml version="1.0" encoding="UTF-8" standalone="no"?>
<!-- Created with Inkscape (http://www.inkscape.org/) -->

<svg
   xmlns:sketch="http://www.bohemiancoding.com/sketch/ns"
   xmlns:dc="http://purl.org/dc/elements/1.1/"
   xmlns:cc="http://creativecommons.org/ns#"
   xmlns:rdf="http://www.w3.org/1999/02/22-rdf-syntax-ns#"
   xmlns:svg="http://www.w3.org/2000/svg"
   xmlns="http://www.w3.org/2000/svg"
   xmlns:sodipodi="http://sodipodi.sourceforge.net/DTD/sodipodi-0.dtd"
   xmlns:inkscape="http://www.inkscape.org/namespaces/inkscape"
   width="22"
   height="14"
   id="svg3028"
   version="1.1"
   inkscape:version="0.48.4 r9939"
   sodipodi:docname="gplus.svg">
  <defs
     id="defs3030" />
  <sodipodi:namedview
     id="base"
     pagecolor="#ffffff"
     bordercolor="#666666"
     borderopacity="1.0"
     inkscape:pageopacity="0.0"
     inkscape:pageshadow="2"
     inkscape:zoom="11.2"
     inkscape:cx="21.001562"
     inkscape:cy="2.1574203"
     inkscape:document-units="px"
     inkscape:current-layer="layer1"
     showgrid="false"
     fit-margin-top="0"
     fit-margin-left="0"
     fit-margin-right="0"
     fit-margin-bottom="0"
     inkscape:window-width="898"
     inkscape:window-height="481"
     inkscape:window-x="2287"
     inkscape:window-y="1360"
     inkscape:window-maximized="0" />
  <metadata
     id="metadata3033">
    <rdf:RDF>
      <cc:Work
         rdf:about="">
        <dc:format>image/svg+xml</dc:format>
        <dc:type
           rdf:resource="http://purl.org/dc/dcmitype/StillImage" />
        <dc:title></dc:title>
      </cc:Work>
    </rdf:RDF>
  </metadata>
  <g
     inkscape:label="Layer 1"
     inkscape:groupmode="layer"
     id="layer1"
     transform="translate(-417.57143,-391.07647)">
    <g
       id="logo_google_plus_32px_clr"
       sketch:type="MSLayerGroup"
       style="fill:#000000;fill-opacity:0.4"
       transform="translate(417.57143,391.07647)">
      <path
         d="m 7,6 0,2.4 3.97,0 C 10.81,9.43 9.77,11.42 7,11.42 4.61,11.42 2.66,9.44 2.66,7 2.66,4.56 4.61,2.58 7,2.58 c 1.36,0 2.27,0.58 2.79,1.08 l 1.9,-1.83 C 10.47,0.69 8.89,0 7,0 3.13,0 0,3.13 0,7 c 0,3.87 3.13,7 7,7 4.04,0 6.72,-2.84 6.72,-6.84 C 13.72,6.7 13.67,6.35 13.61,6 L 7,6 7,6 z"
         id="Shape"
         sketch:type="MSShapeGroup"
         inkscape:connector-curvature="0" />
      <path
         d="m 22,6 -2,0 0,-2 -2,0 0,2 -2,0 0,2 2,0 0,2 2,0 0,-2 2,0"
         id="path28"
         sketch:type="MSShapeGroup"
         inkscape:connector-curvature="0" />
    </g>
    <path
       style="fill:#000000;fill-opacity:1"
       d="m 423.38198,404.93483 c -4.29198,-0.81395 -6.81644,-5.17548 -5.34232,-9.22999 0.76591,-2.1066 2.49418,-3.70267 4.70272,-4.34299 0.77678,-0.22521 2.32348,-0.28036 3.15237,-0.11241 1.1253,0.22801 2.24905,0.74928 2.95458,1.37053 l 0.32388,0.28519 -0.90054,0.89153 -0.90054,0.89153 -0.27629,-0.21773 c -0.97924,-0.77172 -2.40431,-1.03098 -3.69792,-0.67274 -0.76909,0.21298 -1.27091,0.51913 -1.91087,1.1658 -0.88071,0.88993 -1.26462,1.85555 -1.25995,3.16905 0.007,1.91459 1.17959,3.557 2.97561,4.16714 0.51459,0.17481 0.71781,0.20412 1.41029,0.20343 1.26711,-0.001 2.15389,-0.33865 2.92994,-1.1147 0.43734,-0.43734 0.88604,-1.2035 0.97022,-1.65666 l 0.0512,-0.27582 -1.99409,0 -1.99408,0 0,-1.17683 0,-1.17683 3.26871,0 c 2.51558,0 3.28166,0.0209 3.32489,0.0909 0.10975,0.17758 0.0541,2.05531 -0.0791,2.6673 -0.677,3.11121 -3.02393,5.04385 -6.25706,5.15255 -0.58636,0.0197 -1.07363,-0.007 -1.45168,-0.0782 l 0,0 z"
       id="path3009"
       inkscape:connector-curvature="0" />
    <path
       style="fill:#000000;fill-opacity:1"
       d="m 435.609,400.0444 0,-1.02972 -0.99295,0 -0.99295,0 0,-0.95618 0,-0.95617 0.99295,0 0.99295,0 0,-0.99295 0,-0.99295 0.95617,0 0.95618,0 0,0.99295 0,0.99295 0.99295,0 0.99295,0 0,0.95617 0,0.95618 -0.99295,0 -0.99295,0 0,1.02972 0,1.02973 -0.95618,0 -0.95617,0 0,-1.02973 z"
       id="path3011"
       inkscape:connector-curvature="0" />
  </g>
</svg>
