<?xml version="1.0" encoding="UTF-8" standalone="no"?>
<!-- Created with Inkscape (http://www.inkscape.org/) -->

<svg
   xmlns:dc="http://purl.org/dc/elements/1.1/"
   xmlns:cc="http://creativecommons.org/ns#"
   xmlns:rdf="http://www.w3.org/1999/02/22-rdf-syntax-ns#"
   xmlns:svg="http://www.w3.org/2000/svg"
   xmlns="http://www.w3.org/2000/svg"
   xmlns:sodipodi="http://sodipodi.sourceforge.net/DTD/sodipodi-0.dtd"
   xmlns:inkscape="http://www.inkscape.org/namespaces/inkscape"
   id="svg2"
   version="1.1"
   inkscape:version="0.48.4 r9939"
   width="32"
   height="26"
   xml:space="preserve"
   sodipodi:docname="TwitterLogo_#55acee.svg"><metadata
     id="metadata8"><rdf:RDF><cc:Work
         rdf:about=""><dc:format>image/svg+xml</dc:format><dc:type
           rdf:resource="http://purl.org/dc/dcmitype/StillImage" /><dc:title></dc:title></cc:Work></rdf:RDF></metadata><defs
     id="defs6" /><sodipodi:namedview
     pagecolor="#ffffff"
     bordercolor="#666666"
     borderopacity="1"
     objecttolerance="10"
     gridtolerance="10"
     guidetolerance="10"
     inkscape:pageopacity="0"
     inkscape:pageshadow="2"
     inkscape:window-width="1200"
     inkscape:window-height="762"
     id="namedview4"
     showgrid="false"
     fit-margin-top="0"
     fit-margin-left="0"
     fit-margin-right="0"
     fit-margin-bottom="0"
     inkscape:zoom="9.6139532"
     inkscape:cx="47.935054"
     inkscape:cy="12.635988"
     inkscape:window-x="2207"
     inkscape:window-y="327"
     inkscape:window-maximized="0"
     inkscape:current-layer="g10" /><g
     id="g10"
     inkscape:groupmode="layer"
     inkscape:label="ink_ext_XXXXXX"
     transform="matrix(1.25,0,0,-1.25,140.40465,234.34074)"><path
       style="fill:#000000;fill-opacity:1"
       d="m -105.79291,166.39846 c -1.905,0.18398 -3.74029,0.71661 -5.43113,1.57624 -1.31918,0.67067 -1.34719,0.69871 -0.63409,0.63485 0.79221,-0.0709 2.24074,0.0865 3.30944,0.35964 0.96133,0.24573 2.73987,1.08041 3.48521,1.63561 l 0.45035,0.33546 -0.54042,0.0678 c -1.72463,0.21616 -3.27154,1.22256 -4.0493,2.63444 -0.52266,0.94876 -0.54818,0.90327 0.51534,0.91817 0.50709,0.008 1.04357,0.0507 1.19218,0.0971 0.26555,0.0828 0.26005,0.0876 -0.31934,0.28104 -2.08955,0.69751 -3.47256,2.43373 -3.71836,4.66797 l -0.0413,0.37549 0.41749,-0.17896 c 0.48635,-0.20847 1.39072,-0.43368 1.74921,-0.43559 0.23266,-0.002 0.2021,0.0453 -0.45696,0.69669 -0.77016,0.76117 -1.24721,1.58228 -1.5023,2.58587 -0.25566,1.0057 -0.12974,2.33 0.3212,3.37824 l 0.1861,0.43261 1.05275,-1.04797 c 0.57901,-0.57639 1.43728,-1.32066 1.90729,-1.65394 1.0153,-0.71992 2.88158,-1.67747 3.99542,-2.05001 0.90025,-0.30109 2.67217,-0.67572 3.6028,-0.76174 0.564413,-0.0521 0.613671,-0.0433 0.558682,0.1 -0.03317,0.0865 -0.08263,0.46298 -0.109905,0.83677 -0.149887,2.05358 1.069178,4.13294 2.949349,5.03075 0.892648,0.42624 1.459946,0.5576 2.408275,0.5576 1.223027,0 2.490715,-0.46314 3.327874,-1.21583 0.248005,-0.22297 0.526835,-0.40541 0.619626,-0.40541 0.358484,0 1.553102,0.38935 2.349255,0.76567 0.494516,0.23374 0.833129,0.34953 0.833129,0.28487 0,-0.06 -0.151985,-0.37066 -0.337751,-0.69056 -0.335025,-0.57693 -1.037681,-1.35875 -1.64375,-1.82897 l -0.315237,-0.24458 0.45034,0.0585 c 0.429821,0.0557 1.962042,0.4646 2.341529,0.62485 0.178581,0.0754 0.17863,0.074 0.0066,-0.18991 -0.319948,-0.4916 -0.992494,-1.2099 -1.677809,-1.79195 l -0.680453,-0.57793 -0.01601,-0.97454 c -0.03556,-2.16717 -0.528748,-4.22893 -1.508827,-6.30776 -2.157785,-4.57678 -6.238138,-7.67416 -11.119897,-8.44105 -1.11723,-0.17552 -2.89789,-0.23868 -3.92685,-0.13932 l 0,0 z"
       id="path2991"
       inkscape:connector-curvature="0" /></g></svg>
